<?xml version="1.0" standalone="no"?>
<!DOCTYPE svg PUBLIC "-//W3C//DTD SVG 20010904//EN"
 "http://www.w3.org/TR/2001/REC-SVG-20010904/DTD/svg10.dtd">
<svg version="1.0" xmlns="http://www.w3.org/2000/svg"
 width="256.000000pt" height="256.000000pt" viewBox="0 0 256.000000 256.000000"
 preserveAspectRatio="xMidYMid meet">

<g transform="translate(0.000000,256.000000) scale(0.100000,-0.100000)"
fill="#000000" stroke="none">
<!-- <path d="M1116 2549 c-483 -67 -895 -403 -1045 -855 -51 -154 -65 -243 -65
-414 0 -224 43 -407 140 -590 307 -577 980 -834 1588 -605 331 125 618 410
741 739 181 486 62 1016 -309 1374 -182 175 -391 286 -641 337 -96 20 -314 28
-409 14z m374 -226 c430 -85 770 -438 841 -870 16 -100 13 -285 -6 -378 -89
-430 -407 -749 -840 -840 -95 -20 -287 -23 -390 -6 -131 22 -287 85 -412 167
-81 53 -240 215 -296 302 -269 413 -220 954 118 1311 259 273 618 387 985 314z"/> -->
<path d="M1030 1915 l0 -115 -140 0 -140 0 0 -70 0 -70 68 0 c115 0 107 26
107 -365 l0 -337 -24 -19 c-16 -13 -39 -19 -77 -19 l-54 0 0 -70 0 -69 133 -3
132 -3 3 -112 3 -113 69 0 70 0 0 115 0 115 45 0 45 0 0 -115 0 -115 65 0 64
0 3 113 3 112 75 6 c90 7 121 15 181 45 62 31 115 92 133 155 20 65 21 169 2
213 -20 49 -79 110 -126 131 l-41 18 34 28 c63 52 90 143 70 240 -4 22 -24 52
-57 84 -54 53 -131 87 -228 101 l-48 6 0 115 0 114 -67 -3 -68 -3 -3 -112 -3
-113 -44 0 -45 0 0 115 0 115 -70 0 -70 0 0 -115z m354 -283 c61 -21 89 -56
88 -110 -1 -53 -25 -98 -65 -122 -26 -16 -50 -20 -134 -20 l-103 0 0 135 0
135 83 0 c50 -1 101 -7 131 -18z m76 -419 c76 -34 97 -75 78 -150 -12 -51 -60
-97 -115 -112 -21 -6 -86 -11 -145 -11 l-108 0 0 151 0 152 123 -5 c93 -4 133
-10 167 -25z"/>
</g>
</svg>
