<svg width="516" height="404" viewBox="0 0 516 404" fill="none" xmlns="http://www.w3.org/2000/svg">
<path d="M179.337 3.91989C166.832 9.60739 164.558 14.1574 174.789 14.1574C182.179 14.1574 192.411 7.04802 192.411 1.92927C192.411 -0.914481 189.284 -0.345731 179.337 3.91989Z" fill="#1E1E1E"/>
<path d="M204.632 1.92929C199.232 3.91991 200.084 13.3043 206.053 14.7262C213.442 16.7168 217.99 14.4418 217.99 8.46991C217.99 4.48866 211.453 -1.19884 208.611 0.223039C208.326 0.223039 206.337 1.07616 204.632 1.92929Z" fill="#1E1E1E"/>
<path d="M150.916 6.76367C142.389 10.4605 135.568 17.2855 140.4 17.0012C141.537 16.7168 148.358 13.5887 155.463 9.89179C169.105 2.49804 165.695 0.507416 150.916 6.76367Z" fill="#1E1E1E"/>
<path d="M229.358 5.3418C229.358 9.32305 241.011 17.0012 246.979 17.0012C254.084 17.0012 253.232 12.7355 244.989 7.33242C237.316 2.21367 229.358 1.36055 229.358 5.3418Z" fill="#1E1E1E"/>
<path d="M257.779 8.18561C261.758 11.3137 268.579 15.295 273.411 17.0012C281.084 19.5606 281.369 19.5606 277.674 15.8637C275.4 13.5887 268.295 9.60749 262.042 7.04811L250.674 2.49811L257.779 8.18561Z" fill="#1E1E1E"/>
<path d="M100.611 34.0637C87.8212 42.0262 81.8527 49.4199 85.2633 52.8324C88.6738 56.5293 110.558 40.6043 115.958 30.3668C119.937 23.5418 115.958 24.3949 100.611 34.0637Z" fill="#1E1E1E"/>
<path d="M130.168 32.9262C118.232 42.8793 118.232 51.1262 130.168 51.1262C139.547 51.1262 155.463 38.0449 155.463 30.0824C155.463 22.6887 140.116 24.3949 130.168 32.9262Z" fill="#1E1E1E"/>
<path d="M174.221 30.9355C167.4 38.6137 169.39 49.4199 177.916 50.5574C194.116 52.8324 203.779 44.3012 199.516 31.2199C196.958 23.5418 181.042 23.5418 174.221 30.9355Z" fill="#1E1E1E"/>
<path d="M221.4 28.9449C216 34.3481 217.421 41.7418 225.379 47.9981C237.884 57.6668 249.253 54.2543 249.253 40.8887C249.253 29.2293 229.642 20.6981 221.4 28.9449Z" fill="#1E1E1E"/>
<path d="M264.6 29.7981C260.621 39.4668 282.79 59.0887 293.021 55.1074C299.842 52.5481 298.421 47.4293 288.474 37.7606C276.537 26.6699 266.874 23.5418 264.6 29.7981Z" fill="#1E1E1E"/>
<path d="M300.411 30.9356C300.411 35.7699 315.19 51.1262 323.716 55.6762C341.337 64.7762 337.358 52.5481 317.747 37.4762C305.526 28.0918 300.411 26.3856 300.411 30.9356Z" fill="#1E1E1E"/>
<path d="M74.4632 44.3012C61.6737 55.9606 61.6737 56.245 71.9053 48.5668C82.7053 40.6043 92.3685 31.22 89.5264 31.22C88.9579 31.22 82.1369 37.1918 74.4632 44.3012Z" fill="#1E1E1E"/>
<path d="M330.253 39.4668C333.379 43.1637 341.053 49.9887 347.305 54.8231L358.674 63.6387L350.148 54.2543C345.6 49.1356 337.926 42.3106 333.095 38.8981L324.569 32.9262L330.253 39.4668Z" fill="#1E1E1E"/>
<path d="M82.9896 71.8856C75.8843 78.995 73.0422 84.3981 73.0422 90.6544C73.0422 98.6169 73.8949 99.47 81.8528 99.47C94.6422 99.47 107.716 85.5356 106.579 73.3075C105.442 59.6575 95.7791 59.0887 82.9896 71.8856Z" fill="#1E1E1E"/>
<path d="M134.147 69.6106C126.474 77.0043 124.768 90.3699 130.453 96.0574C136.705 102.314 149.779 100.039 158.59 91.2231C167.116 82.4074 169.39 71.8856 163.421 65.9137C157.453 59.9418 141.537 61.9324 134.147 69.6106Z" fill="#1E1E1E"/>
<path d="M195.821 67.0512C187.863 72.4543 187.295 88.0949 194.684 94.6356C201.79 101.176 218.842 100.892 224.526 94.3512C240.442 76.7199 215.716 53.1168 195.821 67.0512Z" fill="#1E1E1E"/>
<path d="M257.211 65.6293C253.8 67.3356 252.095 71.8856 252.095 78.4262C252.095 98.3325 277.674 110.561 287.621 95.4887C297.568 80.1325 273.126 55.9606 257.211 65.6293Z" fill="#1E1E1E"/>
<path d="M56.558 69.6106C49.1686 75.0137 34.6738 98.9012 37.2317 101.745C41.7791 106.011 61.958 84.6824 65.937 71.6012C67.9265 64.2074 65.3686 63.6387 56.558 69.6106Z" fill="#1E1E1E"/>
<path d="M310.926 67.3356C309.79 68.1887 308.937 73.3075 308.937 78.4262C308.937 90.0856 322.295 105.157 332.811 105.157C342.19 105.157 344.748 99.1856 340.2 88.3793C334.8 74.7293 316.326 61.6481 310.926 67.3356Z" fill="#1E1E1E"/>
<path d="M351.853 78.7106C358.105 95.4887 374.59 114.257 379.137 109.707C382.263 106.864 374.021 89.5169 365.211 80.4169C353.842 68.7575 347.59 67.9044 351.853 78.7106Z" fill="#1E1E1E"/>
<path d="M96.0631 111.982C82.421 119.661 77.021 140.136 86.6842 148.667C94.3579 155.492 105.442 154.639 115.389 146.107C122.495 140.42 124.2 136.439 124.2 128.192C124.2 110.561 111.695 103.451 96.0631 111.982Z" fill="#1E1E1E"/>
<path d="M156.884 115.111C147.79 123.926 147.221 139.567 155.463 147.814C169.105 161.464 195.253 149.804 195.253 129.898C195.253 109.992 171.095 100.607 156.884 115.111Z" fill="#1E1E1E"/>
<path d="M43.2 118.239C31.2632 131.036 30.4106 156.345 41.779 156.345C48.6 156.345 60.5369 141.842 63.0948 130.751C67.3579 111.414 55.9895 104.304 43.2 118.239Z" fill="#1E1E1E"/>
<path d="M298.421 113.689C290.179 117.101 287.337 130.751 293.021 141.273C301.547 158.051 316.042 163.454 325.989 153.501C341.621 137.861 319.168 105.442 298.421 113.689Z" fill="#1E1E1E"/>
<path d="M242.27 108.568C233.354 108.29 225.152 119.565 226.008 131.493C226.883 150.293 237.875 161.178 251.034 156.194C271.714 148.362 264.574 109.579 242.27 108.568Z" fill="#1E1E1E"/>
<path d="M17.0527 124.211C13.358 130.467 9.66325 141.557 8.81062 148.382C6.82115 159.473 7.10536 160.326 11.3685 156.914C17.9054 151.511 25.2948 130.182 24.158 120.514L23.3054 112.267L17.0527 124.211Z" fill="#1E1E1E"/>
<path d="M127.042 166.867C109.705 173.123 103.737 197.864 116.526 209.807C125.621 218.339 141.253 218.054 149.211 209.523C157.453 200.707 157.737 181.37 149.779 173.407C146.653 170.279 142.958 167.72 141.537 167.72C140.116 167.72 137.274 167.151 135 166.582C133.011 165.729 129.316 166.014 127.042 166.867Z" fill="#1E1E1E"/>
<path d="M54.5686 173.407C46.6107 182.223 45.7581 201.845 53.1475 210.945C60.8212 220.898 68.2107 220.898 77.3054 211.798C85.8318 203.551 86.9686 184.214 79.8633 173.976C74.4633 166.014 61.6739 165.729 54.5686 173.407Z" fill="#1E1E1E"/>
<path d="M190.137 174.261C183.316 181.37 181.611 198.148 186.727 207.532C190.705 214.926 206.905 219.761 216 216.348C232.769 209.807 237.316 183.929 223.39 172.554C214.579 165.445 197.527 166.298 190.137 174.261Z" fill="#1E1E1E"/>
<path d="M13.9265 177.673C9.09488 188.195 9.6633 210.945 14.7791 217.77C19.0422 223.173 19.0422 223.173 24.7265 216.348C28.7054 211.798 30.4107 205.542 30.4107 195.589C30.4107 172.554 20.7475 162.317 13.9265 177.673Z" fill="#1E1E1E"/>
<path d="M0 196.157C0 207.817 0.568421 212.651 1.13684 206.679C1.70526 200.992 1.70526 191.323 1.13684 185.351C0.568421 179.664 0 184.498 0 196.157Z" fill="#1E1E1E"/>
<path d="M258.884 259.845V336.345H312.384C365.884 336.345 365.884 336.345 365.884 323.595C365.884 311.865 364.356 311.355 326.651 309.825L286.908 308.295V290.445V272.595L316.46 271.065C343.465 269.535 345.503 268.515 345.503 257.295C345.503 245.055 343.975 244.545 314.932 244.545H284.36V226.695V208.845H325.122C365.375 208.845 365.884 208.845 365.884 196.095V183.345H312.384H258.884V259.845Z" fill="#1E1E1E"/>
<path d="M398.884 259.845V336.345H446.193C515.376 336.345 515.884 335.835 515.884 260.355C515.884 183.345 515.884 183.345 448.228 183.345H398.884V259.845ZM484.345 214.965C487.906 218.535 490.449 236.385 490.449 259.845C490.449 283.305 487.906 301.155 484.345 304.725C480.784 308.295 467.049 310.845 453.823 310.845H429.406V259.845V208.845H453.823C467.049 208.845 480.784 211.395 484.345 214.965Z" fill="#1E1E1E"/>
<path d="M92.9368 235.117C78.1579 240.236 77.8737 266.398 92.6526 277.773C98.621 282.323 110.558 282.323 116.526 277.773C119.368 276.067 122.211 269.811 123.063 264.123C124.484 255.307 123.632 252.464 116.811 245.07C108.284 235.97 100.042 232.557 92.9368 235.117Z" fill="#1E1E1E"/>
<path d="M159.442 237.107C144.379 243.648 142.39 260.142 155.179 273.223C168.537 286.304 186.158 283.461 191.842 267.251C196.105 255.592 191.274 242.795 180.758 237.392C171.095 232.273 170.526 232.273 159.442 237.107Z" fill="#1E1E1E"/>
<path d="M36.6632 239.382C28.4211 247.629 37.2316 278.626 48.8843 283.176C62.8106 288.579 66.7895 259.573 54.2843 244.786C46.3264 235.401 42.0632 233.979 36.6632 239.382Z" fill="#1E1E1E"/>
<path d="M8.24213 251.611C9.66318 266.398 17.9053 287.157 22.1684 287.157C29.2737 287.157 20.179 248.482 11.3684 241.089C7.38949 237.676 6.82107 238.814 8.24213 251.611Z" fill="#1E1E1E"/>
<path d="M74.4631 297.679C67.0736 304.789 76.1684 324.126 90.9473 332.657C105.442 340.62 112.263 325.264 101.747 308.201C94.642 296.826 80.7157 291.423 74.4631 297.679Z" fill="#1E1E1E"/>
<path d="M37.5159 298.532C34.6738 303.082 46.8949 326.117 55.4212 332.657C65.3686 340.62 68.7791 336.07 63.0949 322.42C55.9896 305.357 41.4949 291.992 37.5159 298.532Z" fill="#1E1E1E"/>
<path d="M27.8528 312.467C31.2633 318.439 37.2318 327.254 40.9265 331.52L48.0318 339.767L42.916 331.236C27.8528 305.642 15.0633 289.717 27.8528 312.467Z" fill="#1E1E1E"/>
<path d="M120.505 343.179C113.684 349.72 122.211 364.223 137.558 372.186C146.937 377.02 149.779 375.882 149.779 367.92C149.779 357.114 144.663 349.72 134.147 345.17C122.779 340.62 122.779 340.62 120.505 343.179Z" fill="#1E1E1E"/>
<path d="M171.948 343.179C160.579 346.023 164.274 366.214 177.348 372.186C187.011 376.736 195.253 371.617 195.253 361.664C195.253 348.298 184.737 339.767 171.948 343.179Z" fill="#1E1E1E"/>
<path d="M81.5686 347.729C81.5686 353.701 89.5265 363.086 99.7581 369.342C119.369 381.57 121.358 374.461 103.169 356.545C91.2318 344.317 81.5686 340.336 81.5686 347.729Z" fill="#1E1E1E"/>
<path d="M61.6738 349.151C61.6738 352.564 81.8528 370.764 90.6633 375.314C95.7791 378.157 94.9265 376.736 87.2528 368.204C75.3159 355.692 61.6738 345.454 61.6738 349.151Z" fill="#1E1E1E"/>
<path d="M162.569 383.845C160.011 387.826 173.937 400.907 180.758 400.907C185.874 400.907 186.158 400.054 183.6 394.082C181.895 390.386 177.347 385.836 173.369 384.129C165.126 380.432 164.842 380.432 162.569 383.845Z" fill="#1E1E1E"/>
<path d="M198.948 382.992C194.4 384.698 194.116 395.789 198.663 400.339C203.495 405.173 212.305 399.201 212.305 391.239C212.305 386.12 206.337 379.579 202.927 381.286C202.642 381.286 200.653 382.139 198.948 382.992Z" fill="#1E1E1E"/>
<path d="M112.832 385.267C112.832 386.973 140.116 400.907 143.242 400.907C145.8 400.907 125.337 388.679 117.947 385.836C115.105 384.982 112.832 384.698 112.832 385.267Z" fill="#1E1E1E"/>
<path d="M139.832 390.954C144.663 394.936 152.337 399.201 156.884 400.907C165.411 403.467 165.411 403.467 154.326 393.798C148.074 388.395 140.4 383.845 137.274 383.845C131.874 384.129 132.158 384.698 139.832 390.954Z" fill="#1E1E1E"/>
<path d="M226.8 391.239C219.979 400.054 219.411 403.751 224.811 403.751C230.495 403.751 243.568 392.661 243.568 387.826C243.568 381.286 233.053 383.276 226.8 391.239Z" fill="#1E1E1E"/>
<path d="M261.758 388.395C252.663 393.229 243 401.192 244.705 402.898C246.411 404.604 260.905 398.348 268.295 392.661C277.105 385.551 272.558 382.707 261.758 388.395Z" fill="#1E1E1E"/>
</svg>
