<svg width="516" height="405" viewBox="0 0 516 405" fill="none" xmlns="http://www.w3.org/2000/svg">
<path d="M179.453 4.57497C166.947 10.2625 164.674 14.8125 174.905 14.8125C182.295 14.8125 192.526 7.70309 192.526 2.58434C192.526 -0.259406 189.4 0.309344 179.453 4.57497Z" fill="#0148A3"/>
<path d="M204.747 2.58436C199.347 4.57499 200.2 13.9594 206.169 15.3812C213.558 17.3719 218.105 15.0969 218.105 9.12499C218.105 5.14374 211.569 -0.543761 208.726 0.878114C208.442 0.878114 206.453 1.73124 204.747 2.58436Z" fill="#0148A3"/>
<path d="M151.031 7.41874C142.505 11.1156 135.684 17.9406 140.516 17.6562C141.653 17.3719 148.474 14.2437 155.579 10.5469C169.221 3.15312 165.81 1.16249 151.031 7.41874Z" fill="#0148A3"/>
<path d="M229.474 5.99687C229.474 9.97812 241.126 17.6562 247.095 17.6562C254.2 17.6562 253.347 13.3906 245.105 7.9875C237.432 2.86875 229.474 2.01562 229.474 5.99687Z" fill="#0148A3"/>
<path d="M257.895 8.84069C261.874 11.9688 268.695 15.9501 273.526 17.6563C281.2 20.2157 281.484 20.2157 277.79 16.5188C275.516 14.2438 268.411 10.2626 262.158 7.70319L250.79 3.15319L257.895 8.84069Z" fill="#0148A3"/>
<path d="M100.726 34.7187C87.9369 42.6812 81.9685 50.075 85.379 53.4875C88.7895 57.1844 110.674 41.2594 116.074 31.0219C120.053 24.1969 116.074 25.05 100.726 34.7187Z" fill="#0148A3"/>
<path d="M130.284 33.5812C118.347 43.5344 118.347 51.7812 130.284 51.7812C139.663 51.7812 155.579 38.7 155.579 30.7375C155.579 23.3437 140.232 25.05 130.284 33.5812Z" fill="#0148A3"/>
<path d="M174.337 31.5906C167.516 39.2687 169.505 50.075 178.032 51.2125C194.232 53.4875 203.895 44.9562 199.632 31.875C197.074 24.1969 181.158 24.1969 174.337 31.5906Z" fill="#0148A3"/>
<path d="M221.516 29.6C216.116 35.0031 217.537 42.3969 225.495 48.6531C238 58.3219 249.368 54.9094 249.368 41.5438C249.368 29.8844 229.758 21.3531 221.516 29.6Z" fill="#0148A3"/>
<path d="M264.716 30.4531C260.737 40.1219 282.905 59.7438 293.137 55.7625C299.958 53.2031 298.537 48.0844 288.59 38.4156C276.653 27.325 266.99 24.1969 264.716 30.4531Z" fill="#0148A3"/>
<path d="M300.526 31.5906C300.526 36.425 315.305 51.7813 323.832 56.3313C341.453 65.4313 337.474 53.2031 317.863 38.1313C305.642 28.7469 300.526 27.0406 300.526 31.5906Z" fill="#0148A3"/>
<path d="M74.5789 44.9563C61.7894 56.6157 61.7894 56.9 72.021 49.2219C82.821 41.2594 92.4842 31.875 89.6421 31.875C89.0737 31.875 82.2526 37.8469 74.5789 44.9563Z" fill="#0148A3"/>
<path d="M330.369 40.1219C333.495 43.8188 341.169 50.6438 347.421 55.4781L358.79 64.2938L350.263 54.9094C345.716 49.7906 338.042 42.9656 333.211 39.5531L324.684 33.5813L330.369 40.1219Z" fill="#0148A3"/>
<path d="M83.1053 72.5407C76.0001 79.6501 73.158 85.0532 73.158 91.3094C73.158 99.2719 74.0106 100.125 81.9685 100.125C94.758 100.125 107.832 86.1907 106.695 73.9626C105.558 60.3126 95.8948 59.7438 83.1053 72.5407Z" fill="#0148A3"/>
<path d="M134.263 70.2656C126.589 77.6594 124.884 91.025 130.568 96.7125C136.821 102.969 149.895 100.694 158.705 91.8781C167.232 83.0625 169.505 72.5406 163.537 66.5688C157.568 60.5969 141.653 62.5875 134.263 70.2656Z" fill="#0148A3"/>
<path d="M195.937 67.7063C187.979 73.1094 187.411 88.75 194.8 95.2906C201.905 101.831 218.958 101.547 224.642 95.0063C240.558 77.375 215.832 53.7719 195.937 67.7063Z" fill="#0148A3"/>
<path d="M257.326 66.2844C253.916 67.9907 252.21 72.5407 252.21 79.0813C252.21 98.9875 277.789 111.216 287.737 96.1438C297.684 80.7875 273.242 56.6157 257.326 66.2844Z" fill="#0148A3"/>
<path d="M56.6738 70.2656C49.2843 75.6688 34.7896 99.5563 37.3474 102.4C41.8948 106.666 62.0738 85.3375 66.0527 72.2563C68.0422 64.8625 65.4843 64.2938 56.6738 70.2656Z" fill="#0148A3"/>
<path d="M311.042 67.9907C309.905 68.8438 309.053 73.9625 309.053 79.0813C309.053 90.7407 322.411 105.813 332.926 105.813C342.305 105.813 344.863 99.8407 340.316 89.0344C334.916 75.3844 316.442 62.3032 311.042 67.9907Z" fill="#0148A3"/>
<path d="M351.968 79.3657C358.221 96.1438 374.705 114.913 379.253 110.363C382.379 107.519 374.137 90.1719 365.326 81.0719C353.958 69.4126 347.705 68.5594 351.968 79.3657Z" fill="#0148A3"/>
<path d="M96.1789 112.638C82.5368 120.316 77.1368 140.791 86.7999 149.322C94.4736 156.147 105.558 155.294 115.505 146.763C122.61 141.075 124.316 137.094 124.316 128.847C124.316 111.216 111.81 104.106 96.1789 112.638Z" fill="#0148A3"/>
<path d="M157 115.766C147.905 124.581 147.337 140.222 155.579 148.469C169.221 162.119 195.369 150.459 195.369 130.553C195.369 110.647 171.211 101.263 157 115.766Z" fill="#0148A3"/>
<path d="M43.3158 118.894C31.3789 131.691 30.5263 157 41.8947 157C48.7158 157 60.6526 142.497 63.2105 131.406C67.4736 112.069 56.1052 104.959 43.3158 118.894Z" fill="#0148A3"/>
<path d="M298.537 114.344C290.295 117.756 287.453 131.406 293.137 141.928C301.663 158.706 316.158 164.109 326.105 154.156C341.737 138.516 319.284 106.097 298.537 114.344Z" fill="#0148A3"/>
<path d="M242.386 109.223C233.47 108.945 225.267 120.22 226.123 132.149C226.998 150.948 237.99 161.833 251.15 156.849C271.83 149.017 264.689 110.234 242.386 109.223Z" fill="#0148A3"/>
<path d="M17.1685 124.866C13.4737 131.122 9.77898 142.213 8.92634 149.038C6.93687 160.128 7.22108 160.981 11.4842 157.569C18.0211 152.166 25.4106 130.838 24.2737 121.169L23.4211 112.922L17.1685 124.866Z" fill="#0148A3"/>
<path d="M127.158 167.522C109.821 173.778 103.853 198.519 116.642 210.463C125.737 218.994 141.369 218.709 149.326 210.178C157.569 201.363 157.853 182.025 149.895 174.063C146.769 170.934 143.074 168.375 141.653 168.375C140.232 168.375 137.39 167.806 135.116 167.238C133.126 166.384 129.432 166.669 127.158 167.522Z" fill="#0148A3"/>
<path d="M54.6843 174.063C46.7264 182.878 45.8738 202.5 53.2633 211.6C60.937 221.553 68.3264 221.553 77.4212 212.453C85.9475 204.206 87.0843 184.869 79.9791 174.631C74.5791 166.669 61.7896 166.384 54.6843 174.063Z" fill="#0148A3"/>
<path d="M190.253 174.916C183.432 182.025 181.726 198.803 186.842 208.188C190.821 215.581 207.021 220.416 216.116 217.003C232.884 210.463 237.432 184.584 223.505 173.209C214.695 166.1 197.642 166.953 190.253 174.916Z" fill="#0148A3"/>
<path d="M14.0422 178.328C9.2106 188.85 9.77902 211.6 14.8948 218.425C19.158 223.828 19.158 223.828 24.8422 217.003C28.8211 212.453 30.5264 206.197 30.5264 196.244C30.5264 173.209 20.8632 162.972 14.0422 178.328Z" fill="#0148A3"/>
<path d="M0.115723 196.813C0.115723 208.472 0.684144 213.306 1.25256 207.334C1.82099 201.647 1.82099 191.978 1.25256 186.006C0.684144 180.319 0.115723 185.153 0.115723 196.813Z" fill="#0148A3"/>
<path d="M259 260.5V337H312.5C366 337 366 337 366 324.25C366 312.52 364.471 312.01 326.767 310.48L287.024 308.95V291.1V273.25L316.576 271.72C343.581 270.19 345.619 269.17 345.619 257.95C345.619 245.71 344.09 245.2 315.048 245.2H284.476V227.35V209.5H325.238C365.49 209.5 366 209.5 366 196.75V184H312.5H259V260.5Z" fill="#0148A3"/>
<path d="M399 260.5V337H446.309C515.491 337 516 336.49 516 261.01C516 184 516 184 448.343 184H399V260.5ZM484.461 215.62C488.022 219.19 490.565 237.04 490.565 260.5C490.565 283.96 488.022 301.81 484.461 305.38C480.9 308.95 467.165 311.5 453.939 311.5H429.522V260.5V209.5H453.939C467.165 209.5 480.9 212.05 484.461 215.62Z" fill="#0148A3"/>
<path d="M93.0525 235.772C78.2736 240.891 77.9894 267.053 92.7683 278.428C98.7367 282.978 110.674 282.978 116.642 278.428C119.484 276.722 122.326 270.466 123.179 264.778C124.6 255.962 123.747 253.119 116.926 245.725C108.4 236.625 100.158 233.212 93.0525 235.772Z" fill="#0148A3"/>
<path d="M159.558 237.762C144.495 244.303 142.505 260.797 155.295 273.878C168.653 286.959 186.274 284.116 191.958 267.906C196.221 256.247 191.39 243.45 180.874 238.047C171.211 232.928 170.642 232.928 159.558 237.762Z" fill="#0148A3"/>
<path d="M36.7789 240.037C28.5368 248.284 37.3473 279.281 49 283.831C62.9263 289.234 66.9052 260.228 54.4 245.441C46.4421 236.056 42.1789 234.634 36.7789 240.037Z" fill="#0148A3"/>
<path d="M8.35785 252.266C9.7789 267.053 18.021 287.812 22.2842 287.812C29.3894 287.812 20.2947 249.137 11.4842 241.744C7.50522 238.331 6.9368 239.469 8.35785 252.266Z" fill="#0148A3"/>
<path d="M74.5788 298.334C67.1893 305.444 76.2841 324.781 91.063 333.313C105.558 341.275 112.379 325.919 101.863 308.856C94.7578 297.481 80.8314 292.078 74.5788 298.334Z" fill="#0148A3"/>
<path d="M37.6317 299.188C34.7896 303.738 47.0106 326.772 55.5369 333.313C65.4843 341.275 68.8948 336.725 63.2106 323.075C56.1054 306.013 41.6106 292.647 37.6317 299.188Z" fill="#0148A3"/>
<path d="M27.9685 313.122C31.3791 319.094 37.3475 327.909 41.0422 332.175L48.1475 340.422L43.0317 331.891C27.9685 306.297 15.1791 290.372 27.9685 313.122Z" fill="#0148A3"/>
<path d="M120.621 343.834C113.8 350.375 122.326 364.878 137.674 372.841C147.053 377.675 149.895 376.538 149.895 368.575C149.895 357.769 144.779 350.375 134.263 345.825C122.895 341.275 122.895 341.275 120.621 343.834Z" fill="#0148A3"/>
<path d="M172.063 343.834C160.695 346.678 164.39 366.869 177.463 372.841C187.126 377.391 195.369 372.272 195.369 362.319C195.369 348.953 184.853 340.422 172.063 343.834Z" fill="#0148A3"/>
<path d="M81.6843 348.384C81.6843 354.356 89.6422 363.741 99.8738 369.997C119.484 382.225 121.474 375.116 103.284 357.2C91.3475 344.972 81.6843 340.991 81.6843 348.384Z" fill="#0148A3"/>
<path d="M61.7896 349.806C61.7896 353.219 81.9685 371.419 90.779 375.969C95.8948 378.813 95.0422 377.391 87.3685 368.859C75.4317 356.347 61.7896 346.109 61.7896 349.806Z" fill="#0148A3"/>
<path d="M162.684 384.5C160.126 388.481 174.053 401.562 180.874 401.562C185.99 401.562 186.274 400.709 183.716 394.737C182.011 391.041 177.463 386.491 173.484 384.784C165.242 381.087 164.958 381.087 162.684 384.5Z" fill="#0148A3"/>
<path d="M199.063 383.647C194.516 385.353 194.232 396.444 198.779 400.994C203.611 405.828 212.421 399.856 212.421 391.894C212.421 386.775 206.453 380.234 203.042 381.941C202.758 381.941 200.769 382.794 199.063 383.647Z" fill="#0148A3"/>
<path d="M112.947 385.922C112.947 387.628 140.231 401.562 143.358 401.562C145.916 401.562 125.453 389.334 118.063 386.491C115.221 385.637 112.947 385.353 112.947 385.922Z" fill="#0148A3"/>
<path d="M139.947 391.609C144.779 395.591 152.453 399.856 157 401.562C165.526 404.122 165.526 404.122 154.442 394.453C148.189 389.05 140.516 384.5 137.389 384.5C131.989 384.784 132.274 385.353 139.947 391.609Z" fill="#0148A3"/>
<path d="M226.916 391.894C220.095 400.709 219.526 404.406 224.926 404.406C230.61 404.406 243.684 393.316 243.684 388.481C243.684 381.941 233.168 383.931 226.916 391.894Z" fill="#0148A3"/>
<path d="M261.874 389.05C252.779 393.884 243.116 401.847 244.821 403.553C246.526 405.259 261.021 399.003 268.41 393.316C277.221 386.206 272.674 383.363 261.874 389.05Z" fill="#0148A3"/>
</svg>
