<svg width="377" height="312" viewBox="0 0 377 312" fill="none" xmlns="http://www.w3.org/2000/svg">
<path d="M128.467 2.05565C60.6109 15.2556 10.4921 68.6744 1.21088 137.356C-4.35787 179.431 9.46088 223.981 38.9546 259.249C55.8671 279.462 89.8984 300.087 119.186 307.924C139.398 313.287 175.492 312.668 196.323 306.893C229.736 297.406 260.88 276.574 280.061 250.999C285.63 243.574 290.373 236.356 290.373 235.324C290.373 234.087 275.73 224.806 257.992 214.493L225.405 195.724L213.03 208.512C206.223 215.524 196.323 223.156 190.961 225.837C160.23 240.481 125.58 234.706 101.655 210.574C70.5109 179.637 70.5109 132.199 101.655 101.262C125.58 77.1307 160.23 71.3556 190.961 85.9994C196.323 88.6806 206.223 96.3119 213.03 103.324L225.405 116.112L257.992 97.3431C275.73 87.0306 290.373 77.5431 290.373 76.5119C290.373 71.9744 268.511 45.7806 256.548 36.0869C240.461 23.0931 217.155 10.9244 197.561 5.35565C177.761 -0.213104 147.442 -1.65685 128.467 2.05565Z" fill="black"/>
<path d="M277.998 138.387V147.668H269.748H261.498V155.918V164.168H269.748H277.998V173.449V182.731H286.042C294.292 182.731 294.292 182.731 294.911 173.862C295.53 165.199 295.53 165.199 304.398 164.581C313.061 163.962 313.061 163.962 313.061 155.918C313.061 147.874 313.061 147.874 304.398 147.256C295.53 146.637 295.53 146.637 294.911 137.768C294.292 129.106 294.292 129.106 286.042 129.106H277.998V138.387Z" fill="black"/>
<path d="M343.586 137.768C342.967 146.637 342.967 146.637 334.305 147.256C325.436 147.874 325.436 147.874 325.436 155.918C325.436 163.962 325.436 163.962 334.305 164.581C342.967 165.199 342.967 165.199 343.586 173.862C344.205 182.731 344.205 182.731 352.455 182.731H360.498V173.449V164.168H368.748H376.998V155.918V147.668H368.748H360.498V138.387V129.106H352.455C344.205 129.106 344.205 129.106 343.586 137.768Z" fill="black"/>
</svg>
