<?xml version="1.0" standalone="no"?>
<!DOCTYPE svg PUBLIC "-//W3C//DTD SVG 20010904//EN"
 "http://www.w3.org/TR/2001/REC-SVG-20010904/DTD/svg10.dtd">
<svg version="1.0" xmlns="http://www.w3.org/2000/svg"
 width="256.000000pt" height="256.000000pt" viewBox="0 0 256.000000 256.000000"
 preserveAspectRatio="xMidYMid meet">

<g transform="translate(0.000000,256.000000) scale(0.100000,-0.100000)"
fill="#000000" stroke="none">
<path d="M0 1280 l0 -1280 618 1 c404 0 609 4 593 10 -64 25 -971 556 -1003
587 -68 65 -68 61 -68 682 0 621 0 617 68 682 32 31 939 562 1003 587 16 6
-189 10 -593 10 l-618 1 0 -1280z"/>
<path d="M1356 2546 c80 -35 963 -553 996 -584 68 -65 68 -61 68 -682 0 -621
0 -617 -68 -682 -33 -31 -916 -549 -996 -584 -27 -11 57 -13 587 -14 l617 0 0
1280 0 1280 -617 0 c-530 -1 -614 -3 -587 -14z"/>
<path d="M1145 2026 c-329 -64 -572 -323 -617 -656 -27 -204 40 -420 183 -591
82 -98 247 -198 389 -236 98 -26 273 -23 374 5 162 46 313 147 406 271 27 36
50 71 50 76 0 6 -71 51 -157 101 l-158 91 -60 -62 c-33 -34 -81 -71 -107 -84
-149 -71 -317 -43 -433 74 -151 150 -151 380 0 530 116 117 284 145 433 74 26
-13 74 -50 107 -84 l60 -62 158 91 c86 50 157 96 157 101 0 22 -106 149 -164
196 -78 63 -191 122 -286 149 -96 27 -243 34 -335 16z"/>
<path d="M1870 1365 l0 -45 -40 0 -40 0 0 -40 0 -40 40 0 40 0 0 -45 0 -45 39
0 c40 0 40 0 43 43 3 42 3 42 46 45 42 3 42 3 42 42 0 39 0 39 -42 42 -43 3
-43 3 -46 46 -3 42 -3 42 -43 42 l-39 0 0 -45z"/>
<path d="M2188 1368 c-3 -43 -3 -43 -45 -46 -43 -3 -43 -3 -43 -42 0 -39 0
-39 43 -42 42 -3 42 -3 45 -45 3 -43 3 -43 43 -43 l39 0 0 45 0 45 40 0 40 0
0 40 0 40 -40 0 -40 0 0 45 0 45 -39 0 c-40 0 -40 0 -43 -42z"/>
</g>
</svg>
