<?xml version="1.0" standalone="no"?>
<!DOCTYPE svg PUBLIC "-//W3C//DTD SVG 20010904//EN"
 "http://www.w3.org/TR/2001/REC-SVG-20010904/DTD/svg10.dtd">
<svg version="1.0" xmlns="http://www.w3.org/2000/svg"
 width="512.000000pt" height="512.000000pt" viewBox="0 0 512.000000 512.000000"
 preserveAspectRatio="xMidYMid meet">

<g transform="translate(0.000000,512.000000) scale(0.100000,-0.100000)"
fill="#000000" stroke="none">
<path d="M325 5058 c3 -35 96 -1070 204 -2301 109 -1231 201 -2240 203 -2243
3 -3 416 -119 917 -259 l911 -255 911 255 c501 140 914 256 916 259 3 3 410
4544 413 4604 0 1 -1008 2 -2241 2 l-2241 0 7 -62z m3650 -920 c-3 -24 -57
-626 -120 -1338 -143 -1605 -132 -1491 -142 -1500 -4 -4 -266 -78 -581 -165
l-573 -157 -572 157 c-315 87 -576 161 -580 165 -6 6 -86 825 -87 893 0 16 20
17 280 17 216 0 282 -3 285 -12 2 -7 13 -114 24 -237 11 -123 22 -225 23 -226
8 -6 611 -165 626 -165 15 0 622 160 630 166 2 1 21 163 42 361 22 197 41 373
44 391 l5 32 -993 0 -993 0 -6 38 c-15 103 -50 482 -45 488 3 3 433 10 955 15
521 5 989 12 1039 15 l90 6 18 256 c9 141 20 270 23 286 l5 28 -1096 -4 -1095
-3 -5 50 c-3 27 -10 127 -16 220 -6 94 -13 191 -16 218 l-6 47 1422 0 1421 0
-6 -42z"/>
</g>
</svg>
