<?xml version="1.0" standalone="no"?>
<!DOCTYPE svg PUBLIC "-//W3C//DTD SVG 20010904//EN"
 "http://www.w3.org/TR/2001/REC-SVG-20010904/DTD/svg10.dtd">
<svg version="1.0" xmlns="http://www.w3.org/2000/svg"
 width="256.000000pt" height="256.000000pt" viewBox="0 0 256.000000 256.000000"
 preserveAspectRatio="xMidYMid meet">

<g transform="translate(0.000000,256.000000) scale(0.100000,-0.100000)"
fill="#000000" stroke="none">
<path d="M1167 2194 c-4 -4 -7 -58 -7 -121 l0 -113 130 0 131 0 -3 118 -3 117
-121 3 c-66 1 -123 -1 -127 -4z"/>
<path d="M537 1904 c-4 -4 -7 -58 -7 -121 l0 -113 130 0 131 0 -3 118 -3 117
-121 3 c-66 1 -123 -1 -127 -4z"/>
<path d="M845 1888 c-3 -13 -5 -66 -3 -118 l3 -95 130 0 130 0 0 115 0 115
-127 3 c-125 3 -128 2 -133 -20z"/>
<path d="M1167 1904 c-4 -4 -7 -58 -7 -121 l0 -113 130 0 131 0 -3 118 -3 117
-121 3 c-66 1 -123 -1 -127 -4z"/>
<path d="M1969 1797 c-49 -79 -64 -134 -64 -237 0 -79 4 -103 23 -139 43 -87
67 -85 -958 -88 -487 -2 -895 -5 -907 -8 -44 -10 -63 -44 -63 -109 1 -133 37
-311 86 -429 63 -148 170 -270 289 -327 250 -119 684 -130 1002 -25 198 66
341 154 476 294 106 110 174 211 254 378 l64 133 48 0 c113 0 234 63 294 153
55 81 55 91 5 121 -57 32 -153 50 -233 43 l-64 -6 -15 52 c-20 69 -79 152
-141 199 -28 21 -54 38 -60 38 -5 0 -22 -19 -36 -43z"/>
<path d="M227 1614 c-4 -4 -7 -58 -7 -121 l0 -113 130 0 131 0 -3 118 -3 117
-121 3 c-66 1 -123 -1 -127 -4z"/>
<path d="M537 1614 c-4 -4 -7 -58 -7 -121 l0 -113 130 0 131 0 -3 118 -3 117
-121 3 c-66 1 -123 -1 -127 -4z"/>
<path d="M845 1598 c-3 -13 -5 -66 -3 -118 l3 -95 130 0 130 0 0 115 0 115
-127 3 c-125 3 -128 2 -133 -20z"/>
<path d="M1167 1614 c-4 -4 -7 -58 -7 -121 l0 -113 130 0 131 0 -3 118 -3 117
-121 3 c-66 1 -123 -1 -127 -4z"/>
<path d="M1474 1607 c-2 -7 -3 -60 -2 -118 l3 -104 130 0 130 0 0 115 0 115
-128 3 c-100 2 -129 0 -133 -11z"/>
</g>
</svg>
