<svg width="319" height="318" viewBox="0 0 319 318" fill="none" xmlns="http://www.w3.org/2000/svg">
<path d="M141.063 3.29421C131.241 7.75671 129.456 11.3267 137.492 11.3267C143.295 11.3267 151.331 5.74858 151.331 1.73233C151.331 -0.49892 148.876 -0.0526696 141.063 3.29421Z" fill="#0148A3"/>
<path d="M160.93 1.73234C156.689 3.29421 157.358 10.6573 162.046 11.773C167.85 13.3348 171.421 11.5498 171.421 6.86421C171.421 3.74046 166.287 -0.722038 164.055 0.393587C163.832 0.393587 162.269 1.06296 160.93 1.73234Z" fill="#0148A3"/>
<path d="M118.741 5.52545C112.045 8.42608 106.687 13.7811 110.482 13.558C111.375 13.3348 116.732 10.8805 122.313 7.97983C133.027 2.17858 130.349 0.616703 118.741 5.52545Z" fill="#0148A3"/>
<path d="M180.35 4.40984C180.35 7.53359 189.502 13.558 194.189 13.558C199.77 13.558 199.1 10.2111 192.627 5.97172C186.6 1.95547 180.35 1.28609 180.35 4.40984Z" fill="#0148A3"/>
<path d="M202.672 6.64115C205.797 9.09552 211.154 12.2193 214.949 13.558C220.976 15.5661 221.199 15.5661 218.297 12.6655C216.511 10.8805 210.931 7.75677 206.02 5.74865L197.091 2.17865L202.672 6.64115Z" fill="#0148A3"/>
<path d="M79.2313 26.9455C69.1864 33.193 64.4988 38.9942 67.1774 41.6717C69.856 44.5724 87.044 32.0774 91.2852 24.0449C94.4102 18.6899 91.2852 19.3592 79.2313 26.9455Z" fill="#0148A3"/>
<path d="M102.446 26.053C93.0709 33.8623 93.0709 40.333 102.446 40.333C109.812 40.333 122.313 30.0692 122.313 23.8217C122.313 18.0205 110.259 19.3592 102.446 26.053Z" fill="#0148A3"/>
<path d="M137.045 24.4911C131.688 30.5154 133.25 38.9942 139.947 39.8867C152.671 41.6717 160.26 34.9779 156.912 24.7142C154.903 18.6898 142.402 18.6898 137.045 24.4911Z" fill="#0148A3"/>
<path d="M133.249 251.882C139.383 258.649 149.123 257.922 150.943 250.488C154.502 236.374 147.887 227.011 135.919 229.533C128.889 231.063 127.367 245.142 133.249 251.882Z" fill="#0148A3"/>
<path d="M174.1 22.9292C169.859 27.1686 170.975 32.9698 177.225 37.8786C187.046 45.4648 195.975 42.7873 195.975 32.3005C195.975 23.1523 180.573 16.4586 174.1 22.9292Z" fill="#0148A3"/>
<path d="M208.029 23.5986C204.904 31.1848 222.315 46.5805 230.351 43.4567C235.708 41.4486 234.592 37.4323 226.78 29.8461C217.404 21.1442 209.815 18.6898 208.029 23.5986Z" fill="#0148A3"/>
<path d="M236.155 24.4911C236.155 28.2842 247.762 40.333 254.459 43.903C268.298 51.043 265.173 41.4486 249.771 29.623C240.173 22.2599 236.155 20.9211 236.155 24.4911Z" fill="#0148A3"/>
<path d="M58.695 34.978C48.6502 44.1261 48.6502 44.3492 56.6861 38.3249C65.1684 32.0774 72.7579 24.7142 70.5257 24.7142C70.0793 24.7142 64.722 29.3999 58.695 34.978Z" fill="#0148A3"/>
<path d="M259.593 31.1848C262.048 34.0855 268.075 39.4405 272.986 43.2336L281.915 50.1505L275.218 42.7873C271.647 38.7711 265.62 33.4161 261.825 30.7386L255.128 26.053L259.593 31.1848Z" fill="#0148A3"/>
<path d="M65.3916 56.6211C59.8111 62.1993 57.5789 66.4386 57.5789 71.3474C57.5789 77.5949 58.2486 78.2643 64.4988 78.2643C74.5437 78.2643 84.8118 67.3311 83.9189 57.7368C83.026 47.0268 75.4365 46.5805 65.3916 56.6211Z" fill="#0148A3"/>
<path d="M105.571 54.8361C99.5443 60.6373 98.205 71.1242 102.669 75.5867C107.58 80.4955 117.848 78.7105 124.768 71.7936C131.465 64.8767 133.25 56.6211 128.563 51.9355C123.875 47.2498 111.375 48.8117 105.571 54.8361Z" fill="#0148A3"/>
<path d="M154.01 52.828C147.76 57.0674 147.313 69.3392 153.117 74.4711C158.698 79.603 172.091 79.3799 176.555 74.248C189.055 60.4142 169.635 41.8949 154.01 52.828Z" fill="#0148A3"/>
<path d="M202.225 51.7124C199.547 53.0511 198.207 56.6211 198.207 61.753C198.207 77.3718 218.297 86.9661 226.11 75.1405C233.923 63.0918 214.726 44.1261 202.225 51.7124Z" fill="#0148A3"/>
<path d="M44.6322 54.8361C38.8285 59.0755 27.4443 77.818 29.4532 80.0492C33.0248 83.3961 48.8734 66.6617 51.9984 56.398C53.561 50.5967 51.552 50.1505 44.6322 54.8361Z" fill="#0148A3"/>
<path d="M244.414 53.0511C243.521 53.7205 242.851 57.7367 242.851 61.753C242.851 70.9011 253.343 82.7267 261.602 82.7267C268.968 82.7267 270.977 78.0411 267.406 69.5624C263.164 58.8524 248.655 48.5886 244.414 53.0511Z" fill="#0148A3"/>
<path d="M276.558 61.9761C281.468 75.1405 294.415 89.8668 297.987 86.2968C300.442 84.0655 293.969 70.4549 287.049 63.3149C278.12 54.1668 273.209 53.4974 276.558 61.9761Z" fill="#0148A3"/>
<path d="M75.6597 88.0817C64.9452 94.1061 60.704 110.171 68.2935 116.865C74.3204 122.22 83.026 121.55 90.8387 114.857C96.4192 110.394 97.7585 107.27 97.7585 100.8C97.7585 86.9661 87.9368 81.388 75.6597 88.0817Z" fill="#0148A3"/>
<path d="M123.429 90.5361C116.286 97.453 115.839 109.725 122.313 116.195C133.027 126.905 153.563 117.757 153.563 102.139C153.563 86.5199 134.59 79.1567 123.429 90.5361Z" fill="#0148A3"/>
<path d="M34.1408 92.9905C24.7656 103.031 24.0959 122.889 33.0247 122.889C38.382 122.889 47.7572 111.51 49.7662 102.808C53.1145 87.6355 44.1857 82.0573 34.1408 92.9905Z" fill="#0148A3"/>
<path d="M13.6046 97.6761C10.7028 102.585 7.80091 111.287 7.13125 116.642C5.56871 125.344 5.79193 126.013 9.14023 123.335C14.2743 119.096 20.078 102.362 19.1851 94.7755L18.5155 88.3049L13.6046 97.6761Z" fill="#0148A3"/>
<path d="M99.9907 131.145C86.3743 136.054 81.6867 155.465 91.7316 164.837C98.8746 171.53 111.152 171.307 117.402 164.614C123.875 157.697 124.098 142.524 117.848 136.277C115.393 133.822 112.491 131.814 111.375 131.814C110.259 131.814 108.027 131.368 106.241 130.922C104.678 130.252 101.776 130.475 99.9907 131.145Z" fill="#0148A3"/>
<path d="M43.0697 136.277C36.8195 143.194 36.1498 158.589 41.9536 165.729C47.9805 173.539 53.7842 173.539 60.9272 166.399C67.6238 159.928 68.5167 144.755 62.9362 136.723C58.695 130.475 48.6501 130.252 43.0697 136.277Z" fill="#0148A3"/>
<path d="M149.546 136.946C144.188 142.524 142.849 155.689 146.867 163.052C149.992 168.853 162.715 172.646 169.859 169.969C183.028 164.837 186.6 144.532 175.662 135.607C168.742 130.029 155.349 130.699 149.546 136.946Z" fill="#0148A3"/>
<path d="M11.1492 139.624C7.35448 147.879 7.80092 165.729 11.8189 171.084C15.1672 175.324 15.1672 175.324 19.6316 169.969C22.7566 166.399 24.096 161.49 24.096 153.68C24.096 135.607 16.5065 127.575 11.1492 139.624Z" fill="#0148A3"/>
<path d="M0.211426 154.127C0.211426 163.275 0.657865 167.068 1.10431 162.382C1.55074 157.92 1.55074 150.334 1.10431 145.648C0.657865 141.185 0.211426 144.979 0.211426 154.127Z" fill="#0148A3"/>
<path d="M73.2043 184.695C61.5969 188.711 61.3737 209.239 72.9811 218.164C77.6687 221.734 87.044 221.734 91.7316 218.164C93.9638 216.825 96.196 211.916 96.8656 207.454C97.9817 200.537 97.3121 198.306 91.9548 192.504C85.2582 185.364 78.7848 182.687 73.2043 184.695Z" fill="#0148A3"/>
<path d="M125.438 186.257C113.607 191.389 112.045 204.33 122.089 214.594C132.581 224.857 146.42 222.626 150.885 209.908C154.233 200.76 150.438 190.719 142.179 186.48C134.59 182.464 134.143 182.464 125.438 186.257Z" fill="#0148A3"/>
<path d="M29.0068 188.042C22.5334 194.512 29.4532 218.833 38.6053 222.403C49.543 226.642 52.6681 203.884 42.8464 192.281C36.5963 184.918 33.248 183.802 29.0068 188.042Z" fill="#0148A3"/>
<path d="M6.68482 197.636C7.80092 209.239 14.2743 225.527 17.6226 225.527C23.2031 225.527 16.06 195.182 9.14023 189.38C6.01516 186.703 5.56872 187.595 6.68482 197.636Z" fill="#0148A3"/>
<path d="M244.902 90.2054C255.454 96.5098 259.271 112.681 251.508 119.173C245.342 124.367 236.657 123.469 229.023 116.571C223.562 111.964 222.305 108.806 222.476 102.337C222.84 88.5083 232.805 83.1907 244.902 90.2054Z" fill="#0148A3"/>
<path d="M197.085 91.4012C204.043 98.5037 204.166 110.783 197.525 117.081C186.532 127.505 166.244 117.82 166.655 102.206C167.066 86.5928 186.227 79.7319 197.085 91.4012Z" fill="#0148A3"/>
<path d="M286.277 96.2057C295.385 106.49 295.531 126.359 286.605 126.123C281.25 125.982 272.178 114.36 270.399 105.608C267.451 90.3529 276.523 85.0119 286.277 96.2057Z" fill="#0148A3"/>
<path d="M306.683 101.43C309.454 106.414 312.126 115.189 312.655 120.56C313.987 129.3 313.747 129.963 310.47 127.198C305.449 122.825 300.088 105.944 301.181 98.3839L302.02 91.9331L306.683 101.43Z" fill="#0148A3"/>
<path d="M219.445 132.613C232.928 137.879 237.103 157.407 226.815 166.511C219.498 173.014 207.231 172.468 201.159 165.612C194.87 158.527 195.046 143.354 201.459 137.273C203.978 134.884 206.932 132.953 208.048 132.982C209.163 133.012 211.406 132.624 213.203 132.225C214.783 131.597 217.678 131.897 219.445 132.613Z" fill="#0148A3"/>
<path d="M276.212 139.242C282.277 146.321 282.542 161.729 276.552 168.714C270.321 176.361 264.52 176.209 257.567 168.883C251.043 162.238 250.55 147.048 256.34 139.165C260.744 133.031 270.792 133.073 276.212 139.242Z" fill="#0148A3"/>
<path d="M308.033 143.428C311.609 151.781 310.693 169.613 306.535 174.86C303.076 179.01 303.076 179.01 298.754 173.539C295.724 169.888 294.515 164.946 294.72 157.139C295.196 139.072 302.995 131.242 308.033 143.428Z" fill="#0148A3"/>
<path d="M318.585 158.214C318.344 167.359 317.798 171.139 317.475 166.443C317.146 161.971 317.346 154.387 317.916 149.715C318.479 145.266 318.826 149.069 318.585 158.214Z" fill="#0148A3"/>
<path d="M244.812 186.85C256.31 191.17 255.993 211.696 244.154 220.313C239.374 223.758 230.002 223.511 225.41 219.819C223.214 218.422 221.112 213.456 220.56 208.978C219.627 202.034 220.355 199.821 225.863 194.163C232.745 187.201 239.287 184.695 244.812 186.85Z" fill="#0148A3"/>
<path d="M192.556 187.036C204.247 192.477 205.469 205.455 195.157 215.451C184.399 225.435 170.623 222.84 166.495 210.009C163.389 200.776 167.447 190.838 175.814 186.818C183.507 183.003 183.953 183.015 192.556 187.036Z" fill="#0148A3"/>
<path d="M288.907 191.359C295.207 197.998 287.65 222.128 278.407 225.456C267.361 229.406 264.836 206.573 274.96 195.233C281.402 188.037 284.778 187.01 288.907 191.359Z" fill="#0148A3"/>
<path d="M310.968 201.538C309.547 213.107 302.647 229.219 299.3 229.131C293.721 228.984 301.661 198.838 308.731 193.221C311.925 190.626 312.348 191.53 310.968 201.538Z" fill="#0148A3"/>
<path d="M58.695 233.782C52.8913 239.361 60.0343 254.533 71.6418 261.227C83.026 267.474 88.3833 255.426 80.1241 242.038C74.5436 233.113 63.6059 228.874 58.695 233.782Z" fill="#0148A3"/>
<path d="M96.7375 229.467C90.1073 234.032 94.6996 250.16 105.07 258.645C115.293 266.653 122.53 255.631 116.547 241.083C112.485 231.372 102.378 225.418 96.7375 229.467Z" fill="#0148A3"/>
<path d="M29.6765 234.452C27.4443 238.022 37.0427 256.095 43.7393 261.227C51.552 267.474 54.2307 263.904 49.7663 253.194C44.1858 239.807 32.8015 229.32 29.6765 234.452Z" fill="#0148A3"/>
<path d="M22.087 245.385C24.7656 250.07 29.4532 256.987 32.3551 260.334L37.9356 266.805L33.9176 260.111C22.087 240.03 12.0421 227.535 22.087 245.385Z" fill="#0148A3"/>
<path d="M94.8567 269.482C89.4994 274.614 96.196 285.994 108.25 292.241C115.616 296.034 117.848 295.142 117.848 288.894C117.848 280.416 113.83 274.614 105.571 271.044C96.6424 267.474 96.6424 267.474 94.8567 269.482Z" fill="#0148A3"/>
<path d="M135.259 269.482C126.331 271.714 129.233 287.556 139.501 292.241C147.09 295.811 153.563 291.795 153.563 283.986C153.563 273.499 145.304 266.805 135.259 269.482Z" fill="#0148A3"/>
<path d="M64.2755 273.052C64.2755 277.738 70.5257 285.101 78.5616 290.01C93.9638 299.604 95.5263 294.026 81.2403 279.969C71.865 270.375 64.2755 267.251 64.2755 273.052Z" fill="#0148A3"/>
<path d="M48.6501 274.168C48.6501 276.846 64.4988 291.126 71.4186 294.696C75.4365 296.927 74.7669 295.811 68.7399 289.117C59.3647 279.3 48.6501 271.267 48.6501 274.168Z" fill="#0148A3"/>
<path d="M127.893 301.389C125.884 304.513 136.822 314.777 142.179 314.777C146.197 314.777 146.42 314.107 144.411 309.422C143.072 306.521 139.501 302.951 136.376 301.612C129.902 298.712 129.679 298.712 127.893 301.389Z" fill="#0148A3"/>
<path d="M156.465 300.72C152.894 302.059 152.671 310.761 156.242 314.331C160.037 318.124 166.957 313.438 166.957 307.191C166.957 303.174 162.269 298.042 159.59 299.381C159.367 299.381 157.805 300.051 156.465 300.72Z" fill="#0148A3"/>
<path d="M88.8297 302.505C88.8297 303.844 110.259 314.777 112.714 314.777C114.723 314.777 98.6514 305.182 92.8477 302.951C90.6155 302.282 88.8297 302.059 88.8297 302.505Z" fill="#0148A3"/>
<path d="M110.036 306.967C113.83 310.091 119.857 313.438 123.429 314.777C130.125 316.785 130.125 316.785 121.42 309.199C116.509 304.959 110.482 301.389 108.027 301.389C103.785 301.612 104.009 302.059 110.036 306.967Z" fill="#0148A3"/>
<path d="M183.72 252.877C177.767 259.803 168.011 259.331 165.996 251.947C162.068 237.932 168.435 228.399 180.465 230.606C187.533 231.95 189.423 245.985 183.72 252.877Z" fill="#0148A3"/>
<path d="M257.774 232.826C263.722 238.25 256.98 253.604 245.552 260.601C234.336 267.145 228.664 255.241 236.569 241.641C241.913 232.573 252.736 228.048 257.774 232.826Z" fill="#0148A3"/>
<path d="M219.631 229.51C226.379 233.9 222.212 250.143 212.067 258.898C202.059 267.171 194.534 256.343 200.133 241.643C203.939 231.829 213.886 225.611 219.631 229.51Z" fill="#0148A3"/>
<path d="M286.8 232.733C289.125 236.243 280.004 254.562 273.445 259.868C265.799 266.318 263.027 262.82 267.209 251.996C272.436 238.467 283.541 227.685 286.8 232.733Z" fill="#0148A3"/>
<path d="M294.674 243.463C292.119 248.217 287.615 255.255 284.802 258.677L279.393 265.292L283.234 258.495C294.533 238.11 304.246 225.355 294.674 243.463Z" fill="#0148A3"/>
<path d="M222.562 269.463C228.052 274.452 221.657 286.004 209.771 292.566C202.507 296.551 200.252 295.717 200.088 289.472C199.865 280.996 203.729 275.091 211.892 271.306C220.724 267.502 220.724 267.502 222.562 269.463Z" fill="#0148A3"/>
<path d="M182.173 270.524C191.157 272.52 188.672 288.432 178.531 293.386C171.038 297.154 164.461 293.309 164.256 285.503C163.981 275.019 172.061 268.111 182.173 270.524Z" fill="#0148A3"/>
<path d="M253.226 272.229C253.349 276.913 247.295 284.437 239.39 289.556C224.245 299.551 222.537 294.016 236.449 279.589C245.569 269.751 253.074 266.429 253.226 272.229Z" fill="#0148A3"/>
<path d="M268.875 272.934C268.946 275.61 253.478 290.302 246.654 294.052C242.696 296.388 243.336 295.255 249.185 288.405C258.299 278.345 268.799 270.034 268.875 272.934Z" fill="#0148A3"/>
<path d="M190.375 302.226C192.465 305.296 181.8 315.844 176.445 315.984C172.428 316.09 172.188 315.426 174.073 310.69C175.336 307.755 178.812 304.092 181.901 302.672C188.296 299.602 188.519 299.597 190.375 302.226Z" fill="#0148A3"/>
<path d="M229.454 302.316C229.489 303.654 208.354 315.146 205.9 315.211C203.891 315.263 219.706 305.25 225.449 302.867C227.663 302.14 229.442 301.87 229.454 302.316Z" fill="#0148A3"/>
<path d="M208.372 307.334C204.661 310.556 198.724 314.06 195.189 315.492C188.547 317.675 188.547 317.675 197.051 309.863C201.849 305.496 207.78 301.769 210.234 301.705C214.48 301.816 214.268 302.268 208.372 307.334Z" fill="#0148A3"/>
<path d="M178.341 307.19C172.984 314.107 172.537 317.008 176.778 317.008C181.243 317.008 191.511 308.306 191.511 304.513C191.511 299.381 183.252 300.943 178.341 307.19Z" fill="#0148A3"/>
<path d="M205.797 304.959C198.654 308.752 191.064 315 192.404 316.339C193.743 317.677 205.127 312.769 210.931 308.306C217.851 302.728 214.279 300.497 205.797 304.959Z" fill="#0148A3"/>
</svg>
