<?xml version="1.0" standalone="no"?>
<!DOCTYPE svg PUBLIC "-//W3C//DTD SVG 20010904//EN"
 "http://www.w3.org/TR/2001/REC-SVG-20010904/DTD/svg10.dtd">
<svg version="1.0" xmlns="http://www.w3.org/2000/svg"
 width="256.000000pt" height="256.000000pt" viewBox="0 0 256.000000 256.000000"
 preserveAspectRatio="xMidYMid meet">

<g transform="translate(0.000000,256.000000) scale(0.100000,-0.100000)"
fill="#000000" stroke="none">
<path d="M2 1973 c0 -324 3 -572 5 -553 39 366 253 715 568 927 157 105 378
186 565 206 19 2 -229 5 -552 5 l-588 2 2 -587z"/>
<path d="M1410 2554 c188 -27 313 -65 452 -136 380 -194 646 -579 691 -998 2
-19 5 229 5 553 l2 587 -587 -1 c-324 -1 -577 -3 -563 -5z"/>
<path d="M1174 2426 c-22 -7 -231 -123 -464 -257 -457 -264 -495 -291 -547
-396 l-28 -58 -5 -495 -5 -495 -32 80 c-42 109 -61 175 -77 280 -13 83 -14 43
-15 -497 l-1 -588 588 2 c323 1 568 3 544 5 -43 4 -56 11 -754 414 -81 47
-141 113 -165 182 -16 48 -18 96 -18 567 l0 515 28 57 c16 33 48 75 75 99 26
23 233 149 461 280 469 270 487 277 607 246 51 -13 849 -467 907 -516 36 -30
87 -99 87 -117 0 -9 -8 -10 -35 -1 -24 7 -45 7 -67 0 -18 -5 -222 -119 -453
-252 -461 -265 -492 -288 -537 -398 -23 -57 -23 -63 -26 -528 -2 -259 0 -489
3 -512 l6 -43 655 0 654 0 -1 588 c-1 323 -3 576 -5 562 -18 -122 -31 -180
-62 -275 l-37 -110 -5 470 -5 470 -31 65 c-52 110 -83 133 -540 396 -231 133
-441 249 -467 258 -57 19 -175 20 -233 2z m513 -1469 c43 6 46 5 39 -13 -5
-10 -12 -31 -18 -45 -7 -22 -18 -28 -53 -33 -54 -9 -95 -44 -95 -84 0 -37 17
-52 57 -52 51 0 102 -25 114 -57 27 -69 -16 -221 -72 -256 -14 -9 -19 -23 -19
-54 0 -37 -4 -44 -30 -58 -39 -20 -40 -20 -40 21 l0 36 -49 -7 -49 -7 5 29
c10 63 14 73 31 73 68 0 152 56 152 101 0 32 -28 59 -62 59 -46 0 -97 26 -108
55 -22 58 -1 159 46 221 23 30 34 55 34 77 0 28 5 36 33 49 l32 15 3 -38 3
-38 46 6z m383 -410 c0 -30 -7 -37 -101 -97 -56 -36 -105 -66 -110 -68 -5 -2
-9 13 -9 32 0 35 4 39 98 100 53 36 103 65 110 65 7 1 12 -12 12 -32z m-1407
-367 c70 -40 126 -75 123 -77 -11 -12 -296 155 -296 173 0 4 10 0 23 -8 12 -8
80 -47 150 -88z m1292 14 c-23 -18 -124 -70 -112 -58 9 9 120 73 127 73 3 0
-4 -7 -15 -15z"/>
</g>
</svg>
