<svg width="567" height="456" viewBox="0 0 567 456" fill="none" xmlns="http://www.w3.org/2000/svg">
<path d="M377.081 125.773L426.368 76.5141L429.652 55.7728C339.838 -25.849 197.067 -16.594 116.104 75.0842C93.6142 100.547 76.9297 132.292 68.0327 165.073L85.685 162.587L184.257 146.342L191.867 138.563C235.714 90.4354 309.852 83.9607 360.478 124.91L377.081 125.773Z" fill="black"/>
<path d="M496.579 163.625C485.25 121.93 461.992 84.4468 429.653 55.7741L360.479 124.909C389.688 148.763 406.328 184.698 405.615 222.389V234.661C439.615 234.661 467.181 262.209 467.181 296.19C467.181 330.173 439.615 357.031 405.615 357.031H282.312L270.206 370.166V443.967L282.312 455.547H405.615C494.054 456.235 566.306 385.832 566.995 297.443C567.412 243.867 540.982 193.641 496.579 163.625Z" fill="black"/>
<path d="M159.182 455.548H282.312V357.03H159.182C150.409 357.027 141.913 355.144 133.935 351.5L116.466 356.857L66.8339 406.116L62.5105 422.882C90.3444 443.887 124.305 455.698 159.182 455.548Z" fill="black"/>
<path d="M159.182 135.971C70.7406 136.498 -0.524227 208.581 0.00290557 296.97C0.29748 346.329 23.3629 392.792 62.5102 422.881L133.935 351.5C102.947 337.508 89.1769 301.061 103.177 270.093C117.175 239.124 153.644 225.362 184.628 239.352C198.282 245.517 209.217 256.448 215.385 270.093L286.81 198.711C256.42 159.006 209.199 135.792 159.182 135.971Z" fill="black"/>
</svg>
