<?xml version="1.0" standalone="no"?>
<!DOCTYPE svg PUBLIC "-//W3C//DTD SVG 20010904//EN"
 "http://www.w3.org/TR/2001/REC-SVG-20010904/DTD/svg10.dtd">
<svg version="1.0" xmlns="http://www.w3.org/2000/svg"
 width="512.000000pt" height="512.000000pt" viewBox="0 0 512.000000 512.000000"
 preserveAspectRatio="xMidYMid meet">

<g transform="translate(0.000000,512.000000) scale(0.100000,-0.100000)"
fill="#000000" stroke="none">
<path d="M300 5118 c7 -162 321 -4473 327 -4478 4 -4 442 -149 973 -324 l965
-316 965 318 c887 293 966 320 972 343 6 18 320 4413 318 4452 0 4 -1017 7
-2260 7 -1243 0 -2260 -1 -2260 -2z m3715 -775 c-2 -16 -12 -140 -20 -278 -9
-137 -18 -260 -21 -272 l-4 -23 -1111 0 -1112 0 6 -47 c3 -27 16 -200 29 -385
l22 -338 1058 0 c582 0 1058 -1 1058 -2 -1 -36 -130 -1801 -132 -1803 -2 -1
-277 -95 -612 -207 l-609 -205 -616 205 c-339 113 -617 205 -618 206 -2 1 -43
570 -43 594 0 9 69 12 299 12 l299 0 7 -83 7 -83 329 -109 329 -110 328 109
c180 60 328 110 330 111 4 4 52 667 52 723 l0 42 -1015 0 -1015 0 0 30 c0 16
-29 446 -65 955 -36 509 -65 939 -65 956 l0 29 1455 0 1455 0 -5 -27z"/>
</g>
</svg>
