<?xml version="1.0" standalone="no"?>
<!DOCTYPE svg PUBLIC "-//W3C//DTD SVG 20010904//EN"
 "http://www.w3.org/TR/2001/REC-SVG-20010904/DTD/svg10.dtd">
<svg version="1.0" xmlns="http://www.w3.org/2000/svg"
 width="256.000000pt" height="256.000000pt" viewBox="0 0 256.000000 256.000000"
 preserveAspectRatio="xMidYMid meet">

<g transform="translate(0.000000,256.000000) scale(0.100000,-0.100000)"
fill="#000000" stroke="none">
<path d="M2180 1290 l0 -490 85 0 85 0 0 490 0 490 -85 0 -85 0 0 -490z"/>
<path d="M0 1670 l0 -90 95 0 95 0 0 90 0 90 -95 0 -95 0 0 -90z"/>
<path d="M1044 1716 c-3 -8 -4 -180 -2 -383 4 -382 7 -403 50 -465 28 -40 97
-69 183 -75 l75 -6 0 81 0 81 -37 6 c-21 4 -45 9 -54 11 -30 8 -39 52 -39 199
l0 144 63 3 62 3 3 73 3 72 -65 0 -65 0 -3 133 -3 132 -83 3 c-65 2 -83 0 -88
-12z"/>
<path d="M605 1471 c-44 -11 -76 -29 -112 -64 l-33 -31 0 42 0 42 -90 0 -90 0
0 -330 0 -330 90 0 90 0 0 198 c0 185 1 201 23 242 27 55 74 84 136 84 58 -1
106 -25 128 -67 15 -27 18 -64 21 -244 l3 -213 91 0 90 0 -4 233 c-5 254 -12
291 -68 359 -16 19 -50 45 -76 57 -50 24 -151 35 -199 22z"/>
<path d="M1667 1470 c-96 -25 -188 -97 -235 -185 -24 -45 -27 -60 -27 -155 0
-95 3 -110 27 -157 38 -72 90 -120 167 -156 58 -28 76 -31 151 -30 61 0 101 7
141 22 55 21 149 85 149 102 0 4 -27 29 -61 55 l-60 46 -22 -20 c-35 -33 -92
-52 -154 -52 -75 0 -129 30 -161 88 l-23 42 267 0 267 0 -7 76 c-8 104 -44
181 -112 243 -30 28 -74 56 -101 65 -60 21 -156 28 -206 16z m184 -174 c39
-27 74 -79 64 -96 -4 -6 -77 -10 -176 -10 -154 0 -169 2 -169 18 1 40 47 88
105 110 47 18 131 7 176 -22z"/>
<path d="M10 1130 l0 -330 85 0 85 0 0 330 0 330 -85 0 -85 0 0 -330z"/>
<path d="M2444 895 c-21 -33 -10 -74 25 -91 31 -16 62 -4 81 30 13 23 13 29 0
54 -23 40 -82 44 -106 7z m91 -5 c29 -32 10 -74 -35 -78 -24 -3 -38 2 -47 14
-41 57 35 116 82 64z"/>
<path d="M2471 858 c1 -24 3 -35 6 -25 6 21 12 22 28 0 10 -14 12 -10 11 23
-1 32 -5 40 -23 42 -21 3 -23 0 -22 -40z m33 11 c-3 -5 -10 -7 -15 -3 -5 3 -7
10 -3 15 3 5 10 7 15 3 5 -3 7 -10 3 -15z"/>
</g>
</svg>
