<?xml version="1.0" standalone="no"?>
<!DOCTYPE svg PUBLIC "-//W3C//DTD SVG 20010904//EN"
 "http://www.w3.org/TR/2001/REC-SVG-20010904/DTD/svg10.dtd">
<svg version="1.0" xmlns="http://www.w3.org/2000/svg"
 width="256.000000pt" height="256.000000pt" viewBox="0 0 256.000000 256.000000"
 preserveAspectRatio="xMidYMid meet">

<g transform="translate(0.000000,256.000000) scale(0.100000,-0.100000)"
fill="#000000" stroke="none">
<path d="M1509 2558 c0 -2 -2 -43 -3 -93 -2 -53 -10 -108 -20 -135 -37 -100
-62 -127 -220 -245 -298 -222 -381 -358 -331 -541 23 -87 98 -200 196 -296 73
-73 101 -90 113 -70 3 5 -12 49 -33 98 -50 114 -79 214 -91 306 -15 116 2 141
230 333 119 100 196 185 227 252 29 63 39 161 24 233 -15 70 -58 160 -77 160
-8 0 -14 -1 -15 -2z"/>
<path d="M1730 2023 c-8 -3 -58 -27 -110 -52 -174 -86 -300 -185 -346 -272
-23 -44 -22 -139 1 -210 20 -59 29 -76 92 -163 24 -32 43 -69 43 -82 0 -13
-10 -53 -22 -89 -15 -48 -18 -69 -10 -77 17 -17 97 53 143 124 68 106 62 186
-26 323 -45 72 -55 127 -30 175 24 47 104 130 210 218 82 68 107 101 80 108
-5 1 -17 0 -25 -3z"/>
<path d="M1941 1200 c-89 -21 -141 -64 -88 -74 122 -24 141 -30 173 -58 45
-40 46 -86 3 -151 -29 -45 -130 -139 -196 -186 -32 -22 -42 -44 -24 -55 12 -8
133 30 206 65 131 63 215 158 215 245 0 43 -26 120 -53 156 -43 58 -137 81
-236 58z"/>
<path d="M805 1169 c-157 -16 -247 -50 -264 -100 -25 -71 50 -126 211 -156
116 -22 510 -25 628 -4 184 31 362 94 405 141 31 34 8 42 -71 26 -139 -28
-294 -40 -554 -40 -277 -1 -404 8 -397 27 3 11 100 48 175 67 32 8 42 15 40
28 -4 21 -55 24 -173 11z"/>
<path d="M816 865 c-44 -15 -84 -43 -100 -67 -13 -21 13 -62 56 -88 76 -46
287 -74 458 -60 183 14 460 61 488 83 16 13 -4 36 -67 77 l-47 29 -94 -19
c-204 -41 -488 -50 -613 -21 -51 12 -54 17 -27 39 13 11 20 24 16 30 -9 15
-21 15 -70 -3z"/>
<path d="M855 595 c-48 -17 -65 -38 -65 -81 0 -89 178 -144 465 -144 164 0
435 61 435 98 0 6 -34 31 -75 57 l-75 47 -93 -17 c-134 -24 -259 -29 -367 -16
-137 17 -141 19 -134 47 5 21 3 24 -22 24 -16 -1 -47 -7 -69 -15z"/>
<path d="M581 419 c-104 -13 -165 -28 -199 -49 -77 -47 -62 -123 32 -166 128
-58 342 -78 764 -71 394 6 592 32 790 103 122 44 165 109 108 163 -28 26 -48
20 -44 -12 5 -37 -72 -63 -277 -96 -198 -32 -348 -43 -580 -43 -272 0 -538 27
-634 64 -25 9 -25 10 -6 21 11 6 60 23 110 37 63 18 91 31 93 43 3 14 -5 17
-45 16 -26 -1 -77 -5 -112 -10z"/>
<path d="M2135 247 c-60 -40 -159 -81 -259 -107 -129 -33 -281 -41 -735 -39
-417 1 -436 0 -436 -17 0 -22 50 -33 260 -59 412 -50 919 -15 1098 77 78 39
161 138 142 168 -9 15 -16 13 -70 -23z"/>
</g>
</svg>
