<svg width="575" height="557" viewBox="0 0 575 557" fill="none" xmlns="http://www.w3.org/2000/svg">
<path d="M524.68 123.67C521.404 113.138 513.496 104.572 503.622 99.3292L303.112 3.27665C297.824 0.655329 291.928 0 286.64 0C281.353 0 275.457 0 270.216 1.31066L69.6584 98.0185C59.785 102.606 52.5787 111.172 49.9115 122.359L0.637831 338.758C-1.3275 349.946 1.29294 361.133 7.89084 370.355L146.634 542.004C154.542 549.915 165.726 555.157 176.863 555.813H397.775C409.614 557.123 420.798 551.881 428.004 542.004L566.747 370.355C573.345 361.133 575.965 349.946 574.655 338.758L524.68 123.67Z" fill="black"/>
<path d="M494.076 325.09C493.421 325.09 492.766 325.09 492.766 324.435C492.766 323.779 491.456 323.779 490.146 323.779C487.525 323.124 484.905 323.124 482.238 323.124C480.927 323.124 479.617 323.124 478.307 322.469H477.652C470.399 321.813 462.538 320.503 455.285 318.537C453.319 317.881 451.354 315.915 450.699 313.949L445.458 312.639C448.078 293.541 446.768 273.834 442.837 254.736C438.252 235.638 430.344 217.242 419.815 200.812L423.746 196.88V196.224C423.746 194.258 424.401 191.637 425.711 190.326C431.607 185.084 437.55 181.105 444.101 177.173C445.411 176.518 446.721 175.862 448.032 175.207C450.652 173.896 452.617 172.586 455.285 171.275C455.94 170.62 456.595 170.62 457.25 169.964C457.905 169.309 457.25 169.309 457.25 168.654C463.146 164.066 464.503 156.156 459.87 150.258C457.905 147.636 453.974 145.67 450.652 145.67C447.376 145.67 444.054 146.981 441.434 148.947L440.779 149.602C440.123 150.258 439.468 150.913 438.813 150.913C436.848 152.879 434.883 154.845 433.572 156.811C432.917 158.122 431.607 158.777 430.952 159.432C426.366 164.675 420.423 169.964 414.527 173.896C413.217 174.552 411.907 175.207 410.597 175.207C409.942 175.207 408.631 175.207 407.976 174.552H407.321L402.08 177.828C396.839 172.586 390.897 167.296 385.656 162.054C361.323 142.955 331.094 131.159 300.164 127.836L299.509 122.593V123.249C297.543 121.938 296.888 119.972 296.233 118.006C296.233 110.751 296.233 103.542 297.543 95.6313V94.9759C297.543 93.6653 298.198 92.3546 298.198 91.044C298.854 88.4226 298.854 85.8013 299.509 83.1332V79.1076C300.164 72.5075 294.923 65.9542 288.325 65.2989C284.394 64.6435 280.417 66.6095 277.141 69.8862C274.521 72.5075 273.211 75.7841 273.211 79.1076V82.3842C273.211 85.0056 273.866 87.6269 274.521 90.295C275.176 91.6057 275.176 92.9163 275.176 94.227V94.8823C276.486 102.138 276.486 109.346 276.486 117.257C275.831 119.223 275.176 121.189 273.211 122.5V123.81L272.556 129.053C265.303 129.708 258.096 131.019 250.188 132.33C219.304 138.93 190.994 155.36 169.329 178.39L165.398 175.769H164.743C164.088 175.769 163.433 176.424 162.123 176.424C160.812 176.424 159.502 175.769 158.192 175.113C152.296 170.526 146.353 165.237 141.767 159.994C141.112 158.683 139.802 158.028 139.147 157.373C137.182 155.407 135.871 153.441 133.906 151.475C133.251 150.819 132.596 150.819 131.941 150.164C131.286 149.509 131.286 149.509 131.286 149.509C128.665 147.543 125.39 146.232 122.067 146.232C118.137 146.232 114.814 147.543 112.849 150.819C108.918 156.717 110.228 164.628 115.469 169.215C116.124 169.215 116.124 169.871 116.124 169.871C116.124 169.871 117.435 171.181 118.09 171.181C120.055 172.492 122.676 173.803 125.343 175.113C126.653 175.769 127.963 176.424 129.273 177.079C135.871 181.011 142.422 184.99 147.663 190.233C148.974 191.543 150.284 194.165 149.629 196.131V195.475L153.559 199.407C152.904 200.718 152.249 201.373 151.594 202.684C131.192 234.936 122.676 273.085 128.572 310.579L123.331 311.89C123.331 312.545 122.676 312.545 122.676 312.545C122.02 314.511 120.055 315.822 118.09 317.133C110.837 319.099 103.631 320.409 95.7224 321.064C94.4122 321.064 93.102 321.065 91.7918 321.72C89.1713 321.72 86.5509 322.375 83.8837 322.375C83.2285 322.375 82.5734 323.031 81.2632 323.031C80.6081 323.031 80.6081 323.03 79.953 323.686C72.7 324.996 68.1142 331.597 69.4244 338.805C70.7347 344.703 76.6774 348.682 82.5734 348.027C83.8837 348.027 84.5388 348.027 85.849 347.371C86.5041 347.371 86.5041 347.371 86.5041 346.716C86.5041 346.061 88.4694 346.716 89.1245 346.716C91.745 346.061 94.3654 344.75 96.3776 344.095C97.6878 343.439 98.998 342.784 100.308 342.784H100.963C108.216 340.163 114.767 338.197 122.676 336.886H123.331C125.296 336.886 127.261 337.541 128.572 338.852C129.227 338.852 129.227 339.507 129.227 339.507L135.123 338.852C144.996 369.091 163.386 396.1 189.029 415.806C194.925 420.394 200.213 424.372 206.764 427.649L203.488 432.236C203.488 432.892 204.143 432.892 204.143 432.892C205.453 434.858 205.453 437.479 204.798 439.492C202.178 446.092 198.2 452.645 194.27 458.59V459.245C193.615 460.556 192.96 461.211 191.649 462.522C190.339 463.833 189.029 466.454 187.064 469.122C186.408 469.777 186.408 470.433 185.753 471.088C185.753 471.088 185.753 471.743 185.098 471.743C181.823 478.344 184.443 486.207 190.339 489.484C191.649 490.139 193.615 490.795 194.925 490.795C200.166 490.795 204.798 487.518 207.419 482.884C207.419 482.884 207.419 482.229 208.074 482.229C208.074 481.573 208.729 480.918 209.384 480.263C210.039 477.641 211.349 475.675 212.005 473.007L213.315 469.075C215.28 461.82 218.556 455.267 221.878 448.666C223.188 446.7 225.154 445.39 227.119 444.735C227.774 444.735 227.774 444.735 227.774 444.079L230.394 438.837C248.784 446.092 267.876 449.369 287.576 449.369C299.415 449.369 311.254 448.058 323.093 444.781C330.346 443.471 337.552 440.849 344.15 438.883L346.77 443.471C347.425 443.471 347.425 443.471 347.425 444.126C349.391 444.781 351.356 446.092 352.666 448.058C355.942 454.658 359.264 461.211 361.229 468.467V469.122L362.54 473.054C363.195 475.675 363.85 478.297 365.16 480.31C365.815 480.965 365.815 481.62 366.47 482.276C366.47 482.276 366.47 482.931 367.125 482.931C369.746 487.518 374.378 490.842 379.619 490.842C381.585 490.842 382.895 490.186 384.86 489.531C387.481 488.22 390.101 485.599 390.756 482.276C391.411 478.999 391.411 475.675 390.101 472.399C390.101 471.743 389.446 471.743 389.446 471.743C389.446 471.088 388.791 470.433 388.136 469.777C386.826 467.156 385.515 465.19 383.55 463.177C382.895 461.867 382.24 461.211 380.93 459.901V458.59C376.344 452.692 373.021 446.092 370.401 439.492C369.746 437.526 369.746 434.905 371.056 432.892C371.056 432.236 371.711 432.236 371.711 432.236L369.746 426.994C403.297 406.585 428.94 375.036 440.779 337.541L446.019 338.197C446.675 338.197 446.675 337.541 446.675 337.541C447.985 336.231 449.95 335.575 451.915 335.575H452.571C459.824 336.886 467.03 338.852 473.628 341.473H474.283C475.593 342.129 476.903 342.784 478.213 342.784C480.834 344.095 482.799 345.405 485.466 346.061C486.122 346.061 486.777 346.716 488.087 346.716C488.742 346.716 488.742 346.716 489.397 347.371C490.707 348.027 491.362 348.027 492.673 348.027C498.569 348.027 503.856 344.095 505.822 338.805C505.26 331.69 499.972 326.401 494.076 325.09ZM304.048 304.681L286.313 313.247L268.578 304.681L263.992 285.583L276.486 269.808H296.233L308.727 285.583L304.048 304.681ZM411.205 261.944C414.481 275.753 415.136 289.562 413.825 303.371L351.356 285.63C345.46 284.319 342.138 278.374 343.448 272.477C344.103 270.511 344.758 269.2 346.068 267.889L395.389 223.14C402.642 234.982 407.929 248.136 411.205 261.944ZM375.689 198.799L321.782 236.948C317.197 239.57 310.599 238.914 307.323 234.327C306.013 233.016 305.358 231.706 305.358 229.74L301.427 163.317C330.346 166.594 355.989 179.092 375.689 198.799ZM256.693 165.237L269.841 162.615L266.566 228.382C266.566 234.28 261.325 238.914 255.382 238.914C253.417 238.914 252.107 238.259 250.141 237.604L195.58 198.799C212.613 182.369 233.67 170.526 256.693 165.237ZM176.488 223.14L225.154 266.532C229.739 270.464 230.394 277.064 226.464 281.651C225.154 283.617 223.843 284.272 221.223 284.928L157.443 303.324C155.431 275.753 161.982 247.48 176.488 223.14ZM165.305 334.312L230.394 323.124C235.635 323.124 240.923 326.401 241.578 331.69C242.233 333.656 242.233 336.277 240.923 338.29L215.935 398.815C192.913 383.648 174.476 360.618 165.305 334.312ZM314.576 415.853C305.358 417.819 296.186 419.13 286.313 419.13C272.509 419.13 258.05 416.509 244.901 412.53L277.141 353.971C280.417 350.039 285.705 348.729 290.29 351.35C292.256 352.661 293.566 353.971 295.531 355.937L327.117 413.185C323.093 413.887 319.162 414.543 314.576 415.853ZM394.78 358.652C384.907 374.427 371.103 388.236 355.333 398.113L329.691 336.277C328.38 331.035 331.001 325.745 335.587 323.779C337.552 323.124 339.517 322.469 341.483 322.469L407.228 333.656C403.999 342.831 400.021 351.397 394.78 358.652Z" fill="white"/>
</svg>
