<?xml version="1.0" standalone="no"?>
<!DOCTYPE svg PUBLIC "-//W3C//DTD SVG 20010904//EN"
 "http://www.w3.org/TR/2001/REC-SVG-20010904/DTD/svg10.dtd">
<svg version="1.0" xmlns="http://www.w3.org/2000/svg"
 width="256.000000pt" height="256.000000pt" viewBox="0 0 256.000000 256.000000"
 preserveAspectRatio="xMidYMid meet">

<g transform="translate(0.000000,256.000000) scale(0.100000,-0.100000)"
fill="#000000" stroke="none">
<path d="M0 1280 l0 -1280 588 1 c552 1 581 2 492 16 -266 40 -520 173 -712
371 -143 147 -231 288 -296 474 -24 66 -62 224 -62 253 0 2 25 18 55 35 l55
31 0 113 0 113 49 26 49 27 46 -26 46 -26 0 -113 0 -113 89 -51 c48 -28 91
-51 95 -51 3 0 6 98 6 218 l-1 217 -131 75 c-73 41 -138 76 -145 78 -8 2 -50
-17 -95 -42 -45 -26 -83 -44 -86 -41 -9 9 37 144 82 240 187 399 582 682 1016
728 19 2 -229 5 -552 5 l-588 2 0 -1280z"/>
<path d="M1475 2544 c468 -73 855 -396 1014 -848 18 -50 30 -95 29 -102 -2 -8
-31 4 -78 32 -41 24 -81 44 -88 44 -7 0 -76 -37 -153 -81 l-139 -81 2 -166 3
-166 143 -83 143 -83 89 51 c50 28 90 54 90 58 0 4 -63 43 -140 86 l-141 80 3
59 c3 60 3 60 51 88 l48 28 49 -28 50 -27 0 -57 c0 -32 2 -58 5 -58 3 0 27 12
55 28 l50 27 0 608 0 607 -587 -1 c-541 -1 -581 -2 -498 -15z"/>
<path d="M1730 1845 c0 -118 -3 -215 -7 -215 -5 0 -23 9 -41 20 -18 11 -38 20
-45 20 -6 0 -73 -35 -147 -78 l-135 -78 -3 -170 -2 -169 141 -80 c77 -44 146
-79 152 -77 7 2 72 38 145 80 l132 77 -2 395 -3 395 -85 47 c-47 25 -88 47
-92 47 -5 1 -8 -96 -8 -214z m-43 -420 c43 -26 43 -26 43 -83 l0 -57 -48 -26
-47 -26 -45 27 c-44 26 -45 28 -48 82 l-3 55 43 26 c24 15 47 26 52 27 5 0 29
-11 53 -25z"/>
<path d="M783 1596 l-142 -81 0 -170 0 -170 144 -83 145 -83 143 83 142 84 3
166 2 167 -92 54 c-51 30 -118 68 -148 85 l-55 30 -142 -82z"/>
<path d="M2327 1393 c-37 -19 -38 -75 -3 -98 22 -15 27 -15 55 0 25 12 31 22
31 48 0 25 -7 36 -28 48 -25 14 -32 14 -55 2z"/>
<path d="M2550 1133 c-1 -53 -33 -193 -65 -283 -111 -307 -336 -563 -625 -710
-130 -66 -304 -119 -440 -133 -19 -2 229 -5 553 -5 l587 -2 0 585 c0 322 -2
585 -5 585 -3 0 -5 -17 -5 -37z"/>
<path d="M1113 977 l-143 -82 3 -170 2 -170 55 -32 c63 -38 108 -42 136 -12
17 18 19 40 22 180 3 155 3 159 -17 159 -20 0 -21 -5 -21 -139 0 -123 -2 -141
-20 -162 l-19 -24 -48 26 -48 26 0 148 0 147 127 74 128 74 125 -72 125 -73 0
-150 0 -151 -125 -71 -126 -72 -34 20 c-27 16 -41 19 -62 12 -26 -9 -26 -10
30 -41 31 -18 62 -32 69 -32 7 0 76 37 153 83 l140 83 3 166 2 166 -27 19
c-59 41 -260 153 -274 153 -8 -1 -78 -38 -156 -83z"/>
<path d="M1285 853 c-44 -12 -70 -55 -59 -98 6 -26 29 -36 126 -55 31 -6 59
-17 62 -25 18 -47 -97 -63 -140 -20 -23 23 -64 34 -64 18 0 -5 9 -23 20 -40
23 -38 50 -47 130 -41 74 5 100 26 100 79 0 49 -22 64 -109 78 -70 11 -87 21
-78 45 5 12 21 16 61 16 45 0 57 -4 66 -20 14 -25 50 -27 50 -2 0 33 -45 65
-97 68 -26 1 -57 0 -68 -3z"/>
</g>
</svg>
