<svg width="672" height="423" viewBox="0 0 672 423" fill="none" xmlns="http://www.w3.org/2000/svg">
<path d="M454.752 54.1707C454.752 84.0395 453.993 108.593 452.98 108.593C451.714 108.593 447.158 106.314 442.602 103.53C438.046 100.746 432.983 98.4676 431.211 98.4676C429.693 98.4676 412.733 107.327 394.002 118.211L359.83 137.955L359.071 180.986L358.564 223.764L394.255 244.014C413.746 255.152 431.211 264.011 432.73 263.505C434.502 262.999 450.955 253.886 469.433 243.255L502.846 223.764L502.339 123.78L501.58 23.7957L480.064 11.8988C468.168 5.5707 457.789 0.00194796 456.777 0.00194796C455.511 -0.251177 454.752 24.3019 454.752 54.1707ZM443.868 160.483C454.752 167.064 454.752 167.064 454.752 181.493V195.921L442.602 202.502L430.705 209.083L419.314 202.249C408.177 195.668 407.924 195.161 407.164 181.493L406.405 167.571L417.289 160.989C423.364 157.193 429.186 154.408 430.452 154.155C431.718 154.155 437.793 156.939 443.868 160.483Z" fill="black"/>
<path d="M215.043 117.199L179.099 137.702V180.733V223.764L215.549 244.774L252.252 265.783L288.449 244.774L324.393 223.511L325.152 181.493L325.658 139.221L302.371 125.552C289.461 117.958 272.502 108.339 264.908 104.036L250.986 96.4426L215.043 117.199Z" fill="black"/>
<path d="M605.868 168.583C596.502 173.393 596.249 187.568 605.108 193.389C610.677 197.186 611.943 197.186 619.03 193.389C625.358 190.352 626.877 187.821 626.877 181.239C626.877 174.911 625.105 172.127 619.79 169.089C613.462 165.546 611.69 165.546 605.868 168.583Z" fill="black"/>
<path d="M298.574 273.883L262.377 294.639L263.136 337.671L263.643 380.702L277.564 388.802C293.511 398.421 304.902 399.433 311.989 391.839C316.293 387.283 316.799 381.714 317.558 346.277C318.318 307.043 318.318 306.03 313.255 306.03C308.193 306.03 307.939 307.296 307.939 341.214C307.939 372.349 307.433 376.905 302.877 382.221L298.068 388.296L285.918 381.714L273.768 375.133V337.671V300.461L305.914 281.73L338.314 262.999L369.955 281.224L401.596 299.702V337.671V375.893L369.955 393.864L338.061 412.089L329.455 407.027C322.621 402.977 319.077 402.218 313.761 403.989C307.18 406.268 307.18 406.521 321.355 414.368C329.202 418.924 337.049 422.468 338.821 422.468C340.593 422.468 358.058 413.102 377.549 401.458L412.986 380.449L413.746 338.43L414.252 296.411L407.418 291.602C392.483 281.224 341.605 252.874 338.061 252.874C336.036 253.127 318.318 262.493 298.574 273.883Z" fill="black"/>
<path d="M342.111 305.271C330.974 308.308 324.393 319.193 327.177 330.077C328.696 336.658 334.518 339.189 359.071 343.999C366.918 345.518 374.005 348.302 374.764 350.327C379.321 362.224 350.211 366.274 339.327 355.389C333.505 349.568 323.127 346.783 323.127 350.833C323.127 352.099 325.405 356.655 328.189 360.958C334.011 370.577 340.846 372.855 361.096 371.336C379.827 370.071 386.408 364.755 386.408 351.339C386.408 338.936 380.839 335.139 358.818 331.596C341.099 328.811 336.796 326.28 339.074 320.205C340.339 317.168 344.389 316.155 354.514 316.155C365.905 316.155 368.943 317.168 371.221 321.218C374.764 327.546 383.877 328.052 383.877 321.724C383.877 313.371 372.486 305.271 359.324 304.511C352.743 304.258 344.896 304.511 342.111 305.271Z" fill="black"/>
<path d="M138.5 247L139.5 136L69 96L0.5 136V247L44 221V163.5L69 150L92 163.5V221L138.5 247Z" fill="black" stroke="black"/>
<path d="M536 138.5L611 96.5L671 127V177L636 195.5V165L611 150.5C605 154.167 592.4 161.8 590 163C587.6 164.2 586.333 167.5 586 169L584.5 195.5L657 238L610.5 266L537.5 223.5L536 138.5Z" fill="black" stroke="black"/>
</svg>
