<?xml version="1.0" standalone="no"?>
<!DOCTYPE svg PUBLIC "-//W3C//DTD SVG 20010904//EN"
 "http://www.w3.org/TR/2001/REC-SVG-20010904/DTD/svg10.dtd">
<svg version="1.0" xmlns="http://www.w3.org/2000/svg"
 width="256.000000pt" height="256.000000pt" viewBox="0 0 256.000000 256.000000"
 preserveAspectRatio="xMidYMid meet">

<g transform="translate(0.000000,256.000000) scale(0.100000,-0.100000)"
fill="#000000" stroke="none">
<path d="M957 2123 c-4 -3 -7 -55 -7 -114 l0 -108 -37 -6 c-293 -45 -597 -197
-877 -438 l-39 -33 42 -89 c87 -185 243 -384 389 -495 126 -96 328 -181 485
-203 l37 -6 0 70 c0 67 -1 69 -24 69 -14 0 -60 11 -103 25 -224 71 -438 289
-543 555 l-20 50 70 74 c73 77 177 154 268 200 78 39 218 84 290 92 l62 7 0
-74 0 -74 -92 -22 c-55 -13 -130 -41 -183 -67 -101 -51 -215 -138 -215 -164 0
-9 21 -60 47 -112 64 -128 181 -250 293 -303 41 -20 92 -39 113 -42 l37 -7 0
53 0 54 117 0 c137 0 186 16 314 100 73 49 259 224 294 278 l18 28 -64 66
c-180 182 -379 280 -582 286 l-87 2 0 64 0 64 123 -6 c196 -9 371 -67 549
-182 93 -60 211 -159 277 -231 l51 -56 -30 -39 c-47 -58 -184 -183 -285 -258
-224 -168 -384 -231 -583 -231 l-102 0 0 -70 0 -70 99 0 c307 0 578 113 908
379 l108 87 139 -81 c77 -44 141 -85 143 -91 6 -18 -128 -101 -272 -170 -300
-144 -675 -241 -972 -251 l-153 -6 0 -98 0 -99 800 0 800 0 0 850 0 850 -798
0 c-439 0 -802 -3 -805 -7z m233 -524 c36 -10 88 -32 115 -48 52 -30 155 -117
155 -131 0 -8 -201 -180 -210 -179 -3 0 -32 41 -65 92 -53 80 -67 95 -115 118
-30 15 -67 30 -82 33 l-28 6 0 -230 c0 -177 -3 -230 -12 -230 -28 0 -118 62
-161 110 -26 29 -65 88 -88 133 l-41 82 44 39 c59 52 130 87 194 93 l54 6 0
63 0 63 33 4 c53 6 138 -3 207 -24z"/>
</g>
</svg>
