<?xml version="1.0" encoding="UTF-8"?>
<!DOCTYPE svg PUBLIC "-//W3C//DTD SVG 1.1//EN" "http://www.w3.org/Graphics/SVG/1.1/DTD/svg11.dtd">
<svg xmlns="http://www.w3.org/2000/svg" version="1.1" width="256px" height="256px" style="shape-rendering:geometricPrecision; text-rendering:geometricPrecision; image-rendering:optimizeQuality; fill-rule:evenodd; clip-rule:evenodd" xmlns:xlink="http://www.w3.org/1999/xlink">
<g><path style="opacity:0.978" fill="#000000" d="M 107.5,-0.5 C 120.5,-0.5 133.5,-0.5 146.5,-0.5C 160.87,-0.316718 173.037,5.01662 183,15.5C 185.434,18.7954 187.101,22.462 188,26.5C 188.667,50.8333 188.667,75.1667 188,99.5C 185.337,110.829 178.503,118.329 167.5,122C 141.874,123.287 116.208,123.953 90.5,124C 76.3598,127.471 66.5265,135.971 61,149.5C 59.5755,162.773 59.0755,176.106 59.5,189.5C 26.7807,196.088 7.94739,183.088 3,150.5C -2.04904,126.23 0.617629,102.897 11,80.5C 17.1245,72.1834 25.2912,67.0167 35.5,65C 65.8315,64.5 96.1648,64.3334 126.5,64.5C 126.5,62.1667 126.5,59.8333 126.5,57.5C 106.167,57.5 85.8333,57.5 65.5,57.5C 65.3335,47.4944 65.5002,37.4944 66,27.5C 66.6803,14.821 73.1803,6.98768 85.5,4C 92.9054,2.15978 100.239,0.659779 107.5,-0.5 Z M 90.5,18.5 C 100.837,19.0042 105.003,24.3375 103,34.5C 99.7231,40.1088 94.8897,41.9422 88.5,40C 82.8912,36.7231 81.0578,31.8897 83,25.5C 84.7424,22.2543 87.2424,19.921 90.5,18.5 Z"/></g>
<g><path style="opacity:0.979" fill="#000000" d="M 141.5,255.5 C 132.167,255.5 122.833,255.5 113.5,255.5C 101.665,253.531 90.3316,249.698 79.5,244C 73.5558,240.285 69.3892,235.118 67,228.5C 65.884,215.878 65.384,203.212 65.5,190.5C 65.6667,179.5 65.8333,168.5 66,157.5C 68.5331,143.967 76.3664,135.134 89.5,131C 113.167,130.667 136.833,130.333 160.5,130C 177.477,127.358 188.644,117.858 194,101.5C 195.418,89.2282 195.918,76.8949 195.5,64.5C 206.896,64.0907 218.23,64.5907 229.5,66C 238.124,69.9596 243.958,76.4596 247,85.5C 258.765,117.473 256.765,148.473 241,178.5C 236.617,184.441 230.784,187.941 223.5,189C 191.502,189.5 159.502,189.667 127.5,189.5C 127.5,191.833 127.5,194.167 127.5,196.5C 147.833,196.5 168.167,196.5 188.5,196.5C 188.666,206.506 188.5,216.506 188,226.5C 184.965,237.204 178.132,244.37 167.5,248C 158.895,251.147 150.228,253.647 141.5,255.5 Z M 159.5,212.5 C 170.295,213.419 174.129,219.085 171,229.5C 166.752,234.596 161.585,235.763 155.5,233C 148.209,224.393 149.542,217.56 159.5,212.5 Z"/></g>
</svg>
