<?xml version="1.0" encoding="UTF-8"?>
<!DOCTYPE svg PUBLIC "-//W3C//DTD SVG 1.1//EN" "http://www.w3.org/Graphics/SVG/1.1/DTD/svg11.dtd">
<svg xmlns="http://www.w3.org/2000/svg" version="1.1" width="256px" height="256px" style="shape-rendering:geometricPrecision; text-rendering:geometricPrecision; image-rendering:optimizeQuality; fill-rule:evenodd; clip-rule:evenodd" xmlns:xlink="http://www.w3.org/1999/xlink">
<g><path style="opacity:0.938" fill="#000000" d="M 119.5,-0.5 C 124.833,-0.5 130.167,-0.5 135.5,-0.5C 151.633,7.14239 162.8,19.4757 169,36.5C 170.674,40.0207 171.84,43.6873 172.5,47.5C 184.759,45.5829 197.092,45.0829 209.5,46C 235.175,50.1797 245.342,65.013 240,90.5C 235.424,103.556 228.591,115.222 219.5,125.5C 230.703,137.569 238.537,151.569 243,167.5C 246.38,185.243 239.88,197.743 223.5,205C 215.496,207.611 207.33,209.111 199,209.5C 190.521,208.501 182.021,207.668 173.5,207C 168.631,223.417 159.964,237.417 147.5,249C 143.566,251.464 139.566,253.631 135.5,255.5C 130.167,255.5 124.833,255.5 119.5,255.5C 107.706,250.213 98.5397,241.88 92,230.5C 87.8053,222.947 84.3053,215.113 81.5,207C 72.9787,207.668 64.4787,208.501 56,209.5C 44.4719,209.459 33.6386,206.626 23.5,201C 12.851,192.263 9.01764,181.096 12,167.5C 16.4634,151.569 24.2967,137.569 35.5,125.5C 26.409,115.222 19.5756,103.556 15,90.5C 9.65818,65.013 19.8248,50.1797 45.5,46C 57.9079,45.0829 70.2412,45.5829 82.5,47.5C 86.618,31.0922 94.9514,17.2589 107.5,6C 111.434,3.53607 115.434,1.36941 119.5,-0.5 Z M 122.5,15.5 C 125.85,15.335 129.183,15.5017 132.5,16C 137.252,18.7477 141.419,22.2477 145,26.5C 150.091,34.1826 154.258,42.3493 157.5,51C 147.389,54.2244 137.389,57.7244 127.5,61.5C 117.618,57.7059 107.618,54.2059 97.5,51C 100.742,42.3493 104.909,34.1826 110,26.5C 113.767,22.2235 117.934,18.5569 122.5,15.5 Z M 47.5,61.5 C 57.5976,61.04 67.5976,61.7066 77.5,63.5C 74.9012,73.7649 72.7345,84.0982 71,94.5C 62.7324,100.265 54.8991,106.598 47.5,113.5C 37.5467,103.928 31.5467,92.2614 29.5,78.5C 29.3883,73.8904 31.0549,70.0571 34.5,67C 38.6864,64.5665 43.0197,62.7331 47.5,61.5 Z M 184.5,61.5 C 193.568,61.1187 202.568,61.6187 211.5,63C 225.539,67.6019 229.372,76.7685 223,90.5C 219.306,99.2401 214.139,106.907 207.5,113.5C 199.346,106.361 191.179,99.3615 183,92.5C 181.999,82.6645 180.166,72.9978 177.5,63.5C 179.969,62.8319 182.302,62.1653 184.5,61.5 Z M 92.5,66.5 C 97.2886,67.7633 101.955,69.43 106.5,71.5C 101.203,74.8193 95.8695,78.1526 90.5,81.5C 90.1667,81.3333 89.8333,81.1667 89.5,81C 90.9435,76.2833 91.9435,71.45 92.5,66.5 Z M 161.5,66.5 C 163.012,71.1921 164.345,76.0255 165.5,81C 165.167,81.1667 164.833,81.3333 164.5,81.5C 159.167,78.1667 153.833,74.8333 148.5,71.5C 152.856,69.6085 157.189,67.9418 161.5,66.5 Z M 125.5,80.5 C 140.943,85.7697 155.11,93.4364 168,103.5C 168.263,111.52 168.763,119.52 169.5,127.5C 168.773,134.813 168.273,142.147 168,149.5C 155.152,158.496 141.652,166.496 127.5,173.5C 113.423,166.382 99.9225,158.382 87,149.5C 85.1656,133.826 85.3323,118.16 87.5,102.5C 99.9345,94.621 112.601,87.2877 125.5,80.5 Z M 69.5,115.5 C 69.7567,122.362 69.9234,129.362 70,136.5C 65.8672,133.369 62.0338,129.869 58.5,126C 62.0622,122.268 65.7288,118.768 69.5,115.5 Z M 184.5,115.5 C 188.924,118.418 192.924,121.918 196.5,126C 192.966,129.869 189.133,133.369 185,136.5C 185.462,129.53 185.295,122.53 184.5,115.5 Z M 46.5,137.5 C 54.4999,144.664 62.6666,151.664 71,158.5C 72.5091,168.554 74.3424,178.554 76.5,188.5C 76.3918,189.442 76.0585,190.275 75.5,191C 61.1213,194.854 47.1213,193.854 33.5,188C 29.0019,184.846 27.0019,180.513 27.5,175C 28.1353,167.22 30.6353,160.053 35,153.5C 39.052,148.288 42.8854,142.955 46.5,137.5 Z M 207.5,137.5 C 218.212,147.753 224.879,160.253 227.5,175C 226.625,185.209 220.959,190.875 210.5,192C 200.147,193.485 189.814,193.152 179.5,191C 178.941,190.275 178.608,189.442 178.5,188.5C 180.658,178.554 182.491,168.554 184,158.5C 192.326,152.005 200.159,145.005 207.5,137.5 Z M 89.5,171.5 C 95.8546,174.346 101.855,177.846 107.5,182C 103,183.5 98.5,185 94,186.5C 93.0546,186.095 92.3879,185.428 92,184.5C 91.0997,180.166 90.2664,175.832 89.5,171.5 Z M 163.5,171.5 C 164.497,171.47 165.164,171.97 165.5,173C 164.539,176.803 163.706,180.636 163,184.5C 162.612,185.428 161.945,186.095 161,186.5C 156.5,185 152,183.5 147.5,182C 153.009,178.637 158.342,175.137 163.5,171.5 Z M 125.5,191.5 C 135.787,194.968 146.12,198.468 156.5,202C 156.957,202.414 157.291,202.914 157.5,203.5C 153.179,217.33 145.513,228.83 134.5,238C 129.833,240 125.167,240 120.5,238C 109.487,228.83 101.821,217.33 97.5,203.5C 106.91,199.696 116.244,195.696 125.5,191.5 Z"/></g>
<g><path style="opacity:0.947" fill="#000000" d="M 124.5,103.5 C 144.733,104.894 153.233,115.56 150,135.5C 141.632,151.244 129.465,155.077 113.5,147C 100.167,134 100.167,121 113.5,108C 117.053,105.879 120.72,104.379 124.5,103.5 Z"/></g>
</svg>
