<?xml version="1.0" standalone="no"?>
<!DOCTYPE svg PUBLIC "-//W3C//DTD SVG 20010904//EN"
 "http://www.w3.org/TR/2001/REC-SVG-20010904/DTD/svg10.dtd">
<svg version="1.0" xmlns="http://www.w3.org/2000/svg"
 width="256.000000pt" height="256.000000pt" viewBox="0 0 256.000000 256.000000"
 preserveAspectRatio="xMidYMid meet">

<g transform="translate(0.000000,256.000000) scale(0.100000,-0.100000)"
fill="#000000" stroke="none">
<path d="M1140 2554 c-200 -26 -408 -102 -565 -207 -83 -56 -108 -77 -203
-170 -172 -170 -294 -396 -348 -647 -26 -119 -26 -381 0 -500 110 -512 494
-896 1006 -1006 119 -26 381 -26 500 0 513 111 895 493 1006 1006 26 119 26
381 0 500 -111 514 -493 896 -1006 1006 -73 15 -320 27 -390 18z m624 -408
c62 -26 105 -110 92 -181 -10 -51 -66 -110 -119 -125 -148 -41 -265 134 -172
256 46 60 127 80 199 50z m-333 -176 c30 -8 38 -16 47 -47 16 -53 64 -107 117
-133 36 -18 59 -21 116 -18 l72 3 43 -50 c79 -90 160 -285 152 -368 l-3 -32
-112 -3 -112 -3 -7 28 c-37 170 -121 285 -256 354 -99 50 -245 60 -352 24 -59
-20 -52 -26 -123 104 -36 66 -43 85 -32 92 22 14 145 51 202 60 59 9 194 3
248 -11z m-480 -206 l57 -96 -58 -58 c-184 -184 -184 -476 0 -660 l58 -58 -60
-101 -60 -101 -39 31 c-77 61 -160 163 -199 244 -55 114 -58 131 -27 163 76
79 76 225 0 304 -31 33 -28 48 29 168 34 70 57 101 135 179 51 51 97 91 100
87 4 -3 32 -49 64 -102z m-411 -347 c47 -31 72 -78 72 -136 0 -61 -22 -104
-72 -137 -34 -23 -48 -26 -98 -22 -103 7 -158 71 -150 173 8 92 66 144 164
145 37 0 60 -6 84 -23z m1438 -214 c8 -83 -73 -278 -152 -368 l-43 -50 -72 3
c-57 3 -80 0 -116 -18 -55 -27 -100 -77 -116 -130 -10 -34 -18 -41 -48 -49
-110 -28 -243 -22 -371 19 -101 31 -99 26 -47 121 71 130 64 124 123 104 75
-25 168 -30 247 -11 193 45 314 176 361 389 l7 28 112 -3 112 -3 3 -32z m-207
-494 c32 -16 78 -79 85 -115 13 -70 -30 -154 -92 -180 -170 -71 -312 138 -181
266 17 17 45 35 62 40 32 9 99 4 126 -11z"/>
</g>
</svg>
