<?xml version="1.0" standalone="no"?>
<!DOCTYPE svg PUBLIC "-//W3C//DTD SVG 20010904//EN"
 "http://www.w3.org/TR/2001/REC-SVG-20010904/DTD/svg10.dtd">
<svg version="1.0" xmlns="http://www.w3.org/2000/svg"
 width="256.000000pt" height="256.000000pt" viewBox="0 0 256.000000 256.000000"
 preserveAspectRatio="xMidYMid meet">

<g transform="translate(0.000000,256.000000) scale(0.100000,-0.100000)"
fill="#000000" stroke="none">
<path d="M668 2262 l-517 -297 -1 -598 0 -599 33 19 c17 10 105 61 195 113
l162 94 0 237 c0 194 3 239 14 249 12 9 60 -14 253 -126 131 -75 246 -144 256
-152 15 -14 17 -41 17 -309 0 -232 -3 -295 -13 -299 -7 -2 -96 43 -197 102
-101 58 -193 111 -206 116 -20 9 -47 -3 -208 -96 -102 -59 -188 -111 -191
-116 -3 -4 225 -141 506 -304 l512 -296 514 296 c283 164 510 301 506 305 -14
13 -372 219 -382 219 -5 0 -100 -52 -210 -116 -116 -67 -207 -114 -216 -110
-13 5 -15 47 -15 293 0 158 4 294 8 301 5 7 121 77 258 156 178 103 253 141
261 134 9 -7 13 -75 15 -251 l3 -241 140 -78 c77 -44 163 -92 192 -108 l53
-30 0 597 0 598 -467 270 c-256 149 -488 283 -514 298 l-49 29 0 -230 0 -230
210 -122 c116 -67 210 -125 210 -130 0 -13 -16 -23 -260 -164 -129 -75 -244
-136 -255 -136 -24 0 -507 280 -512 296 -2 6 91 66 207 134 l210 121 0 230 c0
126 -1 229 -2 228 -2 0 -236 -134 -520 -297z"/>
</g>
</svg>
