<?xml version="1.0" standalone="no"?>
<!DOCTYPE svg PUBLIC "-//W3C//DTD SVG 20010904//EN"
 "http://www.w3.org/TR/2001/REC-SVG-20010904/DTD/svg10.dtd">
<svg version="1.0" xmlns="http://www.w3.org/2000/svg"
 width="323.000000pt" height="160.000000pt" viewBox="0 0 323.000000 160.000000"
 preserveAspectRatio="xMidYMid meet">

<g transform="translate(0.000000,160.000000) scale(0.100000,-0.100000)"
fill="#000000" stroke="none">
<path d="M744 1496 c-44 -20 -52 -36 -16 -36 26 0 62 25 62 43 0 10 -11 8 -46
-7z"/>
<path d="M833 1503 c-19 -7 -16 -40 5 -45 26 -7 42 1 42 22 0 14 -23 34 -33
29 -1 0 -8 -3 -14 -6z"/>
<path d="M644 1486 c-30 -13 -54 -37 -37 -36 4 1 28 12 53 25 48 26 36 33 -16
11z"/>
<path d="M920 1491 c0 -14 41 -41 62 -41 25 0 22 15 -7 34 -27 18 -55 21 -55
7z"/>
<path d="M1020 1481 c14 -11 38 -25 55 -31 27 -9 28 -9 15 4 -8 8 -33 22 -55
31 l-40 16 25 -20z"/>
<path d="M467 1390 c-45 -28 -66 -54 -54 -66 12 -13 89 43 108 79 14 24 0 21
-54 -13z"/>
<path d="M571 1394 c-42 -35 -42 -64 0 -64 33 0 89 46 89 74 0 26 -54 20 -89
-10z"/>
<path d="M726 1401 c-24 -27 -17 -65 13 -69 57 -8 91 22 76 68 -9 27 -65 27
-89 1z"/>
<path d="M892 1408 c-19 -19 -14 -45 14 -67 44 -34 84 -22 84 25 0 41 -69 71
-98 42z"/>
<path d="M1044 1405 c-14 -34 64 -103 100 -89 24 9 19 27 -16 61 -42 39 -76
50 -84 28z"/>
<path d="M1170 1401 c0 -17 52 -71 82 -87 62 -32 48 11 -21 64 -43 33 -61 39
-61 23z"/>
<path d="M375 1354 c-45 -41 -45 -42 -9 -15 38 28 72 61 62 61 -2 0 -26 -21
-53 -46z"/>
<path d="M1275 1371 c11 -13 38 -37 60 -54 l40 -31 -30 33 c-16 18 -43 42 -60
54 l-30 21 20 -23z"/>
<path d="M405 1257 c-25 -25 -35 -44 -35 -66 0 -28 3 -31 31 -31 45 0 91 49
87 92 -4 48 -38 50 -83 5z"/>
<path d="M585 1265 c-27 -26 -33 -73 -13 -93 22 -22 68 -14 99 17 30 31 38 68
17 89 -21 21 -77 14 -103 -13z"/>
<path d="M802 1274 c-28 -19 -30 -74 -4 -97 25 -23 85 -22 105 1 56 62 -31
145 -101 96z"/>
<path d="M1018 1279 c-12 -6 -18 -22 -18 -45 0 -70 90 -113 125 -60 35 54 -51
139 -107 105z"/>
<path d="M312 1265 c-26 -19 -77 -103 -68 -113 16 -15 87 60 101 106 7 26 -2
28 -33 7z"/>
<path d="M1207 1273 c-4 -3 -7 -21 -7 -39 0 -41 47 -94 84 -94 33 0 42 21 26
59 -19 48 -84 94 -103 74z"/>
<path d="M1351 1233 c22 -59 80 -125 96 -109 11 10 -18 71 -49 103 -40 41 -62
44 -47 6z"/>
<path d="M451 1116 c-48 -27 -67 -99 -33 -129 27 -24 66 -21 101 9 25 20 31
34 31 63 0 62 -44 87 -99 57z"/>
<path d="M665 1105 c-32 -31 -34 -86 -5 -115 48 -48 140 -7 140 63 0 70 -85
103 -135 52z"/>
<path d="M265 1094 c-42 -45 -45 -134 -5 -134 24 0 66 51 75 90 15 68 -25 93
-70 44z"/>
<path d="M1163 1110 c-29 -12 -39 -60 -19 -97 30 -59 81 -78 116 -43 55 55
-24 169 -97 140z"/>
<path d="M173 1073 c-13 -22 -26 -61 -29 -85 -7 -39 -6 -42 9 -30 23 19 49 94
45 128 l-3 29 -22 -42z"/>
<path d="M560 923 c-61 -22 -82 -109 -37 -151 32 -30 87 -29 115 1 29 31 30
99 2 127 -11 11 -24 20 -29 20 -5 0 -15 2 -23 4 -7 3 -20 2 -28 -1z"/>
<path d="M305 900 c-28 -31 -31 -100 -5 -132 27 -35 53 -35 85 -3 30 29 34 97
9 133 -19 28 -64 29 -89 2z"/>
<path d="M782 897 c-24 -25 -30 -84 -12 -117 14 -26 71 -43 103 -31 59 23 75
114 26 154 -31 25 -91 22 -117 -6z"/>
<path d="M162 885 c-17 -37 -15 -117 3 -141 15 -19 15 -19 35 5 14 16 20 38
20 73 0 81 -34 117 -58 63z"/>
<path d="M113 820 c0 -41 2 -58 4 -37 2 20 2 54 0 75 -2 20 -4 3 -4 -38z"/>
<path d="M1120 740 l0 -150 105 0 c105 0 105 0 105 25 0 23 -3 24 -77 27 l-78
3 0 35 0 35 58 3 c53 3 57 5 57 27 0 24 -3 25 -60 25 l-60 0 0 35 0 35 80 0
c79 0 80 0 80 25 l0 25 -105 0 -105 0 0 -150z"/>
<path d="M1450 740 l0 -150 93 0 c136 0 137 1 137 149 0 151 0 151 -133 151
l-97 0 0 -150z m168 88 c7 -7 12 -42 12 -88 0 -46 -5 -81 -12 -88 -7 -7 -34
-12 -60 -12 l-48 0 0 100 0 100 48 0 c26 0 53 -5 60 -12z"/>
<path d="M1820 750 c0 -164 -3 -160 115 -160 118 0 115 -4 115 160 l0 140 -30
0 -29 0 -3 -122 -3 -123 -50 0 -50 0 -3 123 -3 122 -29 0 -30 0 0 -140z"/>
<path d="M2190 740 l0 -150 25 0 c24 0 25 3 25 60 l0 60 60 0 60 0 0 -60 0
-60 30 0 30 0 0 150 0 150 -30 0 -30 0 0 -60 0 -60 -60 0 -60 0 0 60 c0 57 -1
60 -25 60 l-25 0 0 -150z"/>
<path d="M2550 760 c0 -167 2 -170 124 -170 114 0 116 3 116 172 l0 128 -30 0
-29 0 -3 -122 -3 -123 -55 0 -55 0 -3 123 -3 122 -29 0 -30 0 0 -130z"/>
<path d="M2920 740 l0 -150 96 0 c125 0 134 5 134 78 0 32 -5 63 -11 69 -8 8
-8 13 0 17 6 4 11 33 11 66 0 43 -4 59 -16 64 -9 3 -60 6 -115 6 l-99 0 0
-150z m175 65 c0 -30 -1 -30 -57 -33 l-58 -3 0 36 0 36 58 -3 c56 -3 57 -3 57
-33z m0 -125 l0 -35 -57 -3 -58 -3 0 41 0 41 58 -3 57 -3 0 -35z"/>
<path d="M440 683 c-52 -18 -53 -110 -1 -150 21 -16 63 -16 84 0 10 6 20 28
23 48 5 31 2 41 -22 67 -30 32 -59 44 -84 35z"/>
<path d="M674 676 c-53 -23 -60 -81 -15 -127 47 -46 109 -36 129 21 15 41 -2
86 -39 105 -34 18 -36 18 -75 1z"/>
<path d="M242 668 c-29 -29 2 -138 43 -154 49 -19 63 83 19 135 -28 33 -43 38
-62 19z"/>
<path d="M142 625 c5 -52 34 -125 49 -125 25 0 -7 136 -38 162 -14 12 -16 8
-11 -37z"/>
<path d="M1173 490 c-45 -18 -58 -95 -22 -131 22 -22 79 -23 87 -1 3 9 -3 11
-21 7 -31 -8 -57 17 -57 54 0 35 17 51 52 51 30 0 38 14 12 24 -19 7 -23 7
-51 -4z"/>
<path d="M1370 487 c-16 -8 -28 -26 -34 -50 -13 -50 15 -91 66 -95 45 -4 73
25 73 79 0 60 -52 93 -105 66z m72 -43 c10 -21 9 -31 -3 -52 -19 -34 -49 -34
-68 0 -21 36 -2 78 34 78 18 0 29 -8 37 -26z"/>
<path d="M1570 415 c0 -60 3 -75 15 -75 12 0 15 13 16 58 l1 57 20 -57 c11
-32 25 -58 32 -58 7 0 22 28 33 63 l21 62 1 -62 c1 -49 4 -63 16 -63 12 0 15
15 15 75 0 72 -1 75 -23 75 -19 0 -26 -9 -41 -55 -9 -30 -19 -55 -21 -55 -2 0
-12 25 -21 55 -15 46 -22 55 -41 55 -22 0 -23 -3 -23 -75z"/>
<path d="M1840 415 c0 -60 3 -75 15 -75 12 0 15 13 16 58 l1 57 20 -57 c11
-32 25 -58 32 -58 7 0 22 28 33 63 l21 62 1 -62 c1 -49 4 -63 16 -63 12 0 15
15 15 75 0 72 -1 75 -23 75 -19 0 -26 -9 -41 -55 -9 -30 -19 -55 -21 -55 -2 0
-12 25 -21 55 -15 46 -22 55 -41 55 -22 0 -23 -3 -23 -75z"/>
<path d="M2110 435 c0 -62 22 -95 65 -95 43 0 65 33 65 95 0 42 -3 55 -15 55
-11 0 -15 -13 -15 -54 0 -60 -19 -88 -48 -69 -12 7 -18 27 -20 67 -2 41 -7 56
-17 56 -11 0 -15 -14 -15 -55z"/>
<path d="M2340 415 c0 -59 3 -75 15 -75 10 0 15 15 17 56 l3 56 30 -54 c21
-35 38 -54 53 -56 21 -3 22 0 22 72 0 61 -3 76 -15 76 -12 0 -15 -13 -15 -57
l-1 -58 -32 57 c-24 44 -38 58 -54 58 -22 0 -23 -4 -23 -75z"/>
<path d="M2580 415 c0 -60 3 -75 15 -75 12 0 15 15 15 75 0 60 -3 75 -15 75
-12 0 -15 -15 -15 -75z"/>
<path d="M2700 480 c0 -5 9 -10 20 -10 18 0 20 -7 20 -65 0 -51 3 -65 15 -65
12 0 15 14 15 65 0 63 1 65 25 65 14 0 25 5 25 10 0 6 -27 10 -60 10 -33 0
-60 -4 -60 -10z"/>
<path d="M2914 446 c14 -25 26 -58 26 -75 0 -21 5 -31 15 -31 10 0 15 10 15
30 0 17 9 48 20 70 24 46 24 50 7 50 -7 0 -20 -15 -29 -32 l-15 -33 -17 33
c-9 17 -24 32 -32 32 -13 0 -11 -8 10 -44z"/>
<path d="M375 463 c-26 -25 6 -93 58 -123 51 -28 75 26 38 86 -25 40 -74 59
-96 37z"/>
<path d="M245 460 c-10 -16 33 -97 63 -120 35 -28 47 -12 27 36 -25 60 -76
107 -90 84z"/>
<path d="M211 411 c12 -21 33 -52 46 -67 l25 -29 -18 30 c-53 90 -98 146 -53
66z"/>
<path d="M537 303 c-24 -23 6 -74 60 -102 33 -17 43 -13 43 15 0 38 -18 64
-55 80 -40 16 -40 16 -48 7z"/>
<path d="M718 303 c-40 -10 -27 -81 19 -102 34 -16 63 2 63 37 0 47 -37 77
-82 65z"/>
<path d="M400 287 c0 -21 28 -54 64 -76 69 -43 76 -18 12 45 -42 43 -76 57
-76 31z"/>
<path d="M330 282 c0 -12 71 -76 102 -92 18 -10 15 -5 -12 25 -42 44 -90 80
-90 67z"/>
<path d="M685 160 c-9 -14 40 -60 64 -60 18 0 19 3 10 24 -6 13 -22 29 -36 35
-29 13 -30 13 -38 1z"/>
<path d="M813 163 c-16 -6 -17 -45 -1 -61 17 -17 48 4 48 32 0 18 -21 41 -33
35 -1 0 -8 -3 -14 -6z"/>
<path d="M510 155 c0 -6 96 -55 107 -55 9 0 -63 43 -89 53 -10 3 -18 4 -18 2z"/>
<path d="M605 135 c17 -14 44 -29 60 -35 30 -9 30 -9 -9 25 -22 19 -49 35 -60
35 -19 -1 -18 -3 9 -25z"/>
<path d="M911 134 c-24 -31 -26 -44 -7 -44 20 0 66 39 66 56 0 23 -37 16 -59
-12z"/>
<path d="M1034 144 c-32 -17 -66 -45 -60 -51 6 -6 57 16 83 36 31 25 15 35
-23 15z"/>
</g>
</svg>
